<svg width="68" height="69" viewBox="0 0 68 69" fill="none" xmlns="http://www.w3.org/2000/svg">
<g filter="url(#filter0_ddd_26893_74867)">
<rect x="5" y="4" width="58" height="58" rx="29" fill="white"/>
<path d="M34.0001 52.0008C45.2114 52.0008 54.3 42.9123 54.3 31.701C54.3 20.4896 45.2114 11.4011 34.0001 11.4011C22.7888 11.4011 13.7002 20.4896 13.7002 31.701C13.7002 42.9123 22.7888 52.0008 34.0001 52.0008Z" fill="#EBEBEB"/>
<path d="M51.7792 35.322C51.6876 35.5244 51.5199 35.6825 51.3125 35.762C51.105 35.8415 50.8746 35.836 50.6712 35.7466C50.4678 35.6572 50.3078 35.4912 50.2261 35.2846C50.1443 35.0781 50.1474 34.8476 50.2345 34.6432C50.664 33.6645 50.6226 32.5018 50.1624 31.5307C50.0306 31.2511 49.8636 30.9895 49.6654 30.7522C49.2665 30.2752 48.3975 29.5235 47.0683 29.8449C44.9138 30.3649 44.8916 32.2249 45.9079 37.2012C46.2538 38.8955 46.026 40.2155 45.2314 41.1259C44.5457 41.9105 43.6138 42.1629 42.9971 42.2419C42.6312 42.2879 42.3766 42.2726 42.3497 42.271C42.1302 42.252 41.9269 42.1478 41.7832 41.9807C41.6395 41.8137 41.5668 41.5971 41.5808 41.3772C41.5947 41.1573 41.6941 40.9515 41.8577 40.804C42.0213 40.6564 42.2362 40.5787 42.4564 40.5875C42.4863 40.589 43.4381 40.6227 43.9673 40.0076C44.1959 39.7407 44.311 39.3894 44.3539 39.0128C44.4107 38.5204 44.3455 37.9843 44.2542 37.5386C43.8017 35.3235 43.442 33.3616 43.6145 31.7831C43.8262 29.8472 44.8555 28.6437 46.6726 28.2043C48.2909 27.8131 49.8533 28.3477 50.9593 29.6692C51.0636 29.7943 51.1621 29.9237 51.2546 30.0573C52.3016 31.5806 52.5194 33.6369 51.7792 35.322Z" fill="white"/>
<path d="M51.7792 35.322C51.6876 35.5244 51.5198 35.6825 51.3124 35.762C51.1049 35.8415 50.8745 35.8359 50.6711 35.7465C50.4677 35.6572 50.3078 35.4912 50.226 35.2846C50.1442 35.078 50.1473 34.8475 50.2344 34.6432C50.6639 33.6645 50.6225 32.5017 50.1623 31.5307C50.6893 31.161 51.1418 30.6732 51.2545 30.0573C52.3015 31.5805 52.5193 33.6369 51.7792 35.322Z" fill="#FFBC1F"/>
<g opacity="0.3">
<path d="M50.3302 35.4861C50.241 35.3667 50.185 35.2258 50.1682 35.0776C50.1513 34.9295 50.1742 34.7796 50.2344 34.6432C50.6639 33.6645 50.6225 32.5017 50.1623 31.5307C50.0305 31.2511 49.8634 30.9895 49.6652 30.7522C49.2664 30.2751 48.3974 29.5235 47.0682 29.8449C44.9137 30.3649 44.8914 32.2249 45.9077 37.2011C46.2536 38.8954 46.0258 40.2155 45.2312 41.1259C44.5455 41.9105 43.6136 42.1629 42.9969 42.2419C42.6311 42.2879 42.3764 42.2725 42.3496 42.271C42.1301 42.2519 41.9267 42.1478 41.783 41.9807C41.6393 41.8137 41.5667 41.5971 41.5806 41.3772C41.5945 41.1573 41.6939 40.9515 41.8576 40.804C42.0212 40.6564 42.236 40.5787 42.4562 40.5875C42.4861 40.589 43.438 40.6227 43.9672 40.0076C44.1958 39.7407 44.3108 39.3894 44.3538 39.0128C44.4335 39.0237 44.5117 39.0435 44.5871 39.0717C44.9496 39.2098 45.3375 38.9398 45.3234 38.5523C45.315 38.3141 45.2824 38.0182 45.2137 37.6506C44.8854 35.8919 42.8506 29.6569 47.2846 29.1369C51.1655 28.6821 52.5192 33.8793 50.3302 35.4861Z" fill="#363636"/>
</g>
<path d="M42.4897 42.5818C42.3976 42.5818 42.341 42.5781 42.3281 42.5772C42.0261 42.5547 41.7451 42.4139 41.5462 42.1855C41.3473 41.957 41.2465 41.6594 41.2656 41.3571C41.2848 41.0548 41.4224 40.7723 41.6486 40.5708C41.8747 40.3694 42.1712 40.2652 42.4737 40.281C42.4777 40.281 43.3032 40.3089 43.7342 39.8074C44.0833 39.4014 44.1611 38.6175 43.9534 37.6005C43.4958 35.3593 43.1315 33.3723 43.3091 31.7496C43.5366 29.6718 44.6437 28.3787 46.5997 27.9062C48.3356 27.4868 50.0101 28.0576 51.1944 29.4724C52.5633 31.1078 52.9111 33.5081 52.06 35.4452C51.9999 35.5845 51.9128 35.7106 51.8038 35.8162C51.6948 35.9218 51.5659 36.0047 51.4247 36.0603C51.2835 36.1158 51.1327 36.1429 50.9809 36.1399C50.8292 36.137 50.6796 36.104 50.5406 36.0429C50.4017 35.9819 50.2762 35.8939 50.1714 35.7842C50.0666 35.6744 49.9845 35.545 49.93 35.4034C49.8754 35.2618 49.8494 35.1108 49.8534 34.959C49.8575 34.8073 49.8915 34.6579 49.9535 34.5194C50.4611 33.3645 50.2508 31.9297 49.4301 30.9492C49.0773 30.527 48.3092 29.86 47.1401 30.1429C45.3529 30.5746 45.1613 32.0133 46.2079 37.1401C46.5739 38.9326 46.323 40.3414 45.4619 41.3279C44.7226 42.1736 43.7344 42.4569 43.0352 42.5464C42.8542 42.5696 42.6721 42.5814 42.4897 42.5818ZM42.4088 40.8927C42.2697 40.8926 42.136 40.9465 42.0358 41.043C41.9357 41.1395 41.8768 41.2711 41.8718 41.4101C41.8667 41.5491 41.9158 41.6847 42.0088 41.7882C42.1017 41.8917 42.2311 41.9552 42.3699 41.9651C42.3729 41.9651 42.6118 41.9805 42.9578 41.9372C43.5514 41.8618 44.3875 41.6246 44.9998 40.9237C45.7283 40.0895 45.9324 38.8579 45.6068 37.2628C45.1232 34.8948 44.8342 33.0618 44.9945 31.8128C45.1579 30.5396 45.7752 29.8413 46.9961 29.5465C48.4875 29.1862 49.4559 30.024 49.9006 30.5554C50.867 31.7105 51.1144 33.4028 50.5153 34.7662C50.4869 34.8308 50.4715 34.9003 50.47 34.9708C50.4684 35.0413 50.4808 35.1114 50.5064 35.1771C50.5319 35.2428 50.5702 35.3028 50.619 35.3537C50.6677 35.4047 50.7261 35.4455 50.7906 35.4739C50.921 35.5312 51.0687 35.5344 51.2014 35.4828C51.3342 35.4311 51.4409 35.3289 51.4982 35.1985C52.2579 33.47 51.9466 31.3273 50.724 29.8665C49.6952 28.6373 48.2445 28.1404 46.7441 28.5029C45.0424 28.914 44.1185 29.998 43.9194 31.8164C43.7506 33.3504 44.1076 35.2881 44.5546 37.4776C44.729 38.3316 44.8091 39.4985 44.1995 40.2081C43.5714 40.9384 42.4872 40.8967 42.4414 40.8943C42.4305 40.893 42.4196 40.8927 42.4088 40.8927Z" fill="#363636"/>
<path d="M44.4914 41.1373C44.3296 42.2686 43.4567 43.3616 43.4567 43.3616H24.8271C23.9189 42.7051 23.0906 41.6543 23.0169 40.6403V40.6395C22.9824 40.1686 23.1113 39.7053 23.471 39.2934C24.6062 37.9949 26.2491 39.4085 26.2491 39.4085C24.1935 35.4807 27.9994 30.5987 27.9994 30.5987C28.0002 30.5978 28.001 30.5968 28.0017 30.5957C30.3334 27.9196 38.225 26.8658 39.1746 28.0477C39.2257 28.1095 39.2574 28.185 39.2658 28.2648C39.3533 29.156 39.8449 30.3939 40.2346 31.2614C40.4907 31.8313 40.8251 32.3598 41.2148 32.8468C42.1198 33.9789 42.6053 35.1992 42.8615 36.2531C43.0327 36.9511 43.1253 37.666 43.1376 38.3846C43.1446 38.7849 43.12 39.0219 43.12 39.0219C44.3518 39.4783 44.608 40.3174 44.4914 41.1373Z" fill="white"/>
<path d="M25.5414 42.4439C25.959 42.4439 26.2975 42.1054 26.2975 41.6878C26.2975 41.2702 25.959 40.9317 25.5414 40.9317C25.1238 40.9317 24.7853 41.2702 24.7853 41.6878C24.7853 42.1054 25.1238 42.4439 25.5414 42.4439Z" fill="#FF5253"/>
<path d="M42.2744 42.6718C42.6602 42.512 42.8434 42.0697 42.6836 41.6839C42.5238 41.2981 42.0815 41.1149 41.6957 41.2747C41.3099 41.4345 41.1267 41.8768 41.2865 42.2626C41.4463 42.6484 41.8886 42.8316 42.2744 42.6718Z" fill="#FF5253"/>
<path d="M24.1748 41.5789C24.3848 41.5789 24.555 41.4087 24.555 41.1987C24.555 40.9888 24.3848 40.8186 24.1748 40.8186C23.9649 40.8186 23.7947 40.9888 23.7947 41.1987C23.7947 41.4087 23.9649 41.5789 24.1748 41.5789Z" fill="#FF5253"/>
<path d="M24.6311 40.6954C24.8411 40.6954 25.0112 40.5252 25.0112 40.3153C25.0112 40.1053 24.8411 39.9352 24.6311 39.9352C24.4212 39.9352 24.251 40.1053 24.251 40.3153C24.251 40.5252 24.4212 40.6954 24.6311 40.6954Z" fill="#FF5253"/>
<path d="M25.6607 40.6668C25.8706 40.6668 26.0408 40.4966 26.0408 40.2867C26.0408 40.0767 25.8706 39.9065 25.6607 39.9065C25.4507 39.9065 25.2806 40.0767 25.2806 40.2867C25.2806 40.4966 25.4507 40.6668 25.6607 40.6668Z" fill="#FF5253"/>
<path d="M41.9395 40.7866C42.158 40.6961 42.2617 40.4457 42.1712 40.2272C42.0807 40.0087 41.8303 39.905 41.6118 39.9955C41.3934 40.086 41.2896 40.3364 41.3801 40.5549C41.4706 40.7733 41.7211 40.8771 41.9395 40.7866Z" fill="#FF5253"/>
<path d="M43.7521 41.6131C43.8064 41.3829 43.6639 41.1524 43.4338 41.098C43.2036 41.0437 42.973 41.1862 42.9187 41.4164C42.8644 41.6465 43.0069 41.8771 43.2371 41.9314C43.4672 41.9857 43.6978 41.8432 43.7521 41.6131Z" fill="#FF5253"/>
<path d="M43.3491 40.4874C43.4034 40.2573 43.2608 40.0267 43.0307 39.9724C42.8006 39.918 42.57 40.0606 42.5157 40.2907C42.4614 40.5208 42.6039 40.7514 42.834 40.8057C43.0641 40.8601 43.2947 40.7175 43.3491 40.4874Z" fill="#FF5253"/>
<path d="M42.8606 36.2539C42.4975 36.3451 42.1244 36.3909 41.75 36.3904C39.2266 36.3904 37.181 34.3448 37.181 31.8214C37.1803 31.0777 37.3616 30.3452 37.7089 29.6876C38.0562 29.03 38.559 28.4673 39.1736 28.0485C39.2248 28.1103 39.2565 28.1858 39.2649 28.2656C39.3523 29.1568 39.844 30.3948 40.2336 31.2623C40.4898 31.8321 40.8242 32.3606 41.2139 32.8476C42.1189 33.9797 42.6044 35.2 42.8606 36.2539Z" fill="#FFBC1F"/>
<g opacity="0.3">
<path d="M43.1193 39.0227C41.5661 36.9272 39.2651 37.8645 39.2651 37.8645C39.5227 37.3003 40.0856 36.9874 40.58 36.8159C41.1831 36.6065 41.5173 35.9493 41.2972 35.3501C40.9869 34.5052 40.3645 33.8284 39.8899 33.2294C39.5448 32.7939 39.2409 32.2476 39.023 31.81C38.9228 31.6104 38.7501 31.4566 38.5402 31.38C38.3304 31.3035 38.0993 31.3099 37.894 31.3981C31.0245 34.3363 27.9986 30.5995 27.9986 30.5995C27.9995 30.5985 28.0003 30.5975 28.0009 30.5964C30.3326 27.9204 38.2243 26.8665 39.1738 28.0485C39.225 28.1102 39.2567 28.1858 39.2651 28.2655C39.3525 29.1568 39.8442 30.3947 40.2338 31.2622C40.49 31.8321 40.8244 32.3605 41.2141 32.8476C42.1191 33.9797 42.6046 35.2 42.8608 36.2538C43.2435 37.8216 43.1193 39.0227 43.1193 39.0227Z" fill="#363636"/>
</g>
<g opacity="0.3">
<path d="M44.4908 41.1374C44.329 42.2687 43.4561 43.3617 43.4561 43.3617H24.8265C23.9183 42.7051 23.09 41.6543 23.0163 40.6404L24.1064 41.6654C24.6374 42.1648 25.3389 42.4428 26.0678 42.4428H26.4534C26.9653 42.4428 27.4636 42.2779 27.8745 41.9727C27.8745 41.9727 28.1545 42.2848 28.5978 41.9727C28.5978 41.9727 29.058 42.2112 29.6823 41.5247C29.6823 41.5247 30.592 41.2455 30.2607 40.286C29.9293 39.3265 29.091 36.3843 29.6455 35.1763C29.6455 35.1763 30.2001 39.9401 31.5316 39.9623C31.5316 39.9623 32.9122 40.329 35.1303 35.1786C35.102 35.2698 34.1747 38.2067 32.9981 40.1319C32.9981 40.1319 32.7641 41.2532 33.775 41.1182C33.775 41.1182 33.9476 42.0271 35.3037 41.7326C35.3037 41.7326 36.9305 42.959 37.7688 38.11C37.7688 38.11 38.1132 36.9511 37.9168 35.4647C37.9168 35.4647 38.461 38.0695 37.9072 40.7321C37.7516 41.4804 38.2753 42.2018 39.035 42.2873C39.6498 42.3565 40.5193 42.4152 41.7476 42.4384C42.6066 42.4546 43.446 42.1483 44.0749 41.5626C44.2206 41.4279 44.3594 41.286 44.4908 41.1374Z" fill="#363636"/>
</g>
<g opacity="0.3">
<path d="M43.1188 39.0228C43.1188 39.0228 40.5141 38.3985 40.0048 41.8415C40.0048 41.8415 39.4963 38.2428 43.1365 38.3854C43.1434 38.7858 43.1188 39.0228 43.1188 39.0228Z" fill="#363636"/>
</g>
<g opacity="0.3">
<path d="M33.1428 39.8895C33.1428 39.8895 33.3749 40.4468 33.8001 40.3975C33.8852 40.3885 33.9691 40.3708 34.0505 40.3444C34.0772 40.3359 34.1055 40.3336 34.1332 40.3376C34.161 40.3416 34.1875 40.3518 34.2107 40.3675C34.2339 40.3832 34.2532 40.404 34.2673 40.4283C34.2813 40.4526 34.2896 40.4797 34.2916 40.5077C34.3101 40.7256 34.3848 40.9786 34.6256 41.0261C34.9545 41.091 35.3182 40.8971 35.5492 40.7095C35.6537 40.6247 35.8117 40.6706 35.8479 40.8002L35.8497 40.8069C35.8547 40.8245 35.8645 40.8402 35.8781 40.8523C35.8916 40.8645 35.9084 40.8725 35.9263 40.8755C35.9443 40.8784 35.9627 40.8762 35.9795 40.8691C35.9962 40.862 36.0106 40.8503 36.0209 40.8353C36.4078 40.2751 37.4409 38.5446 37.9168 35.4654C37.9168 35.4654 38.3218 39.0025 36.3032 41.6878C36.3032 41.6878 35.8213 42.1343 35.3036 41.7338C35.3036 41.7338 34.2364 42.0742 33.775 41.1194C33.7755 41.1197 32.6826 41.068 33.1428 39.8895Z" fill="#363636"/>
</g>
<g opacity="0.3">
<path d="M27.0575 41.174C27.0575 41.174 27.8644 41.6979 28.07 41.2756C28.1138 41.1856 28.2333 41.1613 28.3145 41.2199C28.4542 41.3207 28.6519 41.4017 28.8514 41.279C29.037 41.1644 29.0968 40.9771 29.1105 40.8188C29.1224 40.6784 29.2034 40.5479 29.3353 40.4985C29.4811 40.444 29.6191 40.3078 29.513 39.9723C29.3199 39.3621 28.8202 36.237 29.6463 35.177C29.6463 35.177 29.1568 36.2445 29.7323 38.3776C29.7323 38.3776 30.9976 41.2748 29.6831 41.5255C29.6831 41.5255 29.363 42.3514 28.4631 41.9569C28.4625 41.9569 27.6616 42.524 27.0575 41.174Z" fill="#363636"/>
</g>
<path d="M43.4562 43.6689H24.8269C24.7624 43.6689 24.6996 43.6486 24.6474 43.6108C23.8037 43.001 22.8526 41.9326 22.7196 40.7628C22.6486 40.1411 22.8285 39.5635 23.2399 39.0926C23.9576 38.2706 24.8836 38.3477 25.6066 38.6568C25.1311 37.1381 25.2855 35.3473 26.0691 33.416C26.7714 31.685 27.7169 30.4621 27.7565 30.4109L27.7669 30.3983C28.7326 29.2872 30.7429 28.3159 33.2844 27.7338C35.4903 27.2275 37.6898 27.1177 38.7571 27.4576C39.3861 27.6584 39.5468 27.9913 39.5701 28.2352C39.6528 29.0814 40.1288 30.2797 40.5134 31.1362C40.7473 31.6568 41.0635 32.1679 41.4531 32.6548C43.4403 35.1399 43.4768 37.9919 43.4398 38.8207C44.1373 39.1286 44.5762 39.5928 44.7462 40.2032C45.1603 41.693 43.7557 43.477 43.6957 43.5522C43.6671 43.5884 43.6307 43.6177 43.5893 43.6379C43.5478 43.6581 43.5023 43.6687 43.4562 43.6689ZM24.9272 43.0553H43.3024C43.5826 42.666 44.4349 41.3699 44.1551 40.3679C44.0221 39.8924 43.6489 39.5459 43.0129 39.3109C42.9489 39.2873 42.8945 39.2432 42.8584 39.1854C42.8223 39.1275 42.8065 39.0593 42.8135 38.9915C42.8167 38.9594 43.1163 35.7191 40.9736 33.0396C40.5517 32.5119 40.2084 31.9564 39.9535 31.3885C39.5499 30.4904 39.05 29.2256 38.9591 28.2961C38.9532 28.2348 38.8476 28.1318 38.5697 28.0432C36.6675 27.4362 30.2512 28.4868 28.2351 30.7942C28.0872 30.9883 24.6127 35.6223 26.5193 39.2674C26.5525 39.3307 26.5626 39.4035 26.5478 39.4734C26.5331 39.5433 26.4944 39.6058 26.4385 39.6502C26.3826 39.6947 26.3129 39.7182 26.2415 39.7167C26.1701 39.7153 26.1014 39.689 26.0473 39.6423C25.9899 39.5933 24.6193 38.4448 23.7003 39.4963C23.4013 39.8387 23.2758 40.2415 23.3275 40.6928C23.4174 41.4707 24.0413 42.3893 24.9272 43.0553Z" fill="#363636"/>
<path d="M26.5376 39.308C26.6405 39.5941 26.7572 39.8872 26.8813 40.1693C27.0028 40.4501 27.1389 40.7244 27.2891 40.9909C27.3268 41.0557 27.3639 41.121 27.4046 41.181L27.4643 41.273L27.527 41.358C27.568 41.418 27.6126 41.4631 27.6552 41.5128C27.6646 41.5246 27.6755 41.5351 27.6875 41.5442L27.7191 41.5717L27.7497 41.6001C27.7609 41.6096 27.7764 41.6186 27.7896 41.628C27.897 41.7047 28.0111 41.7614 28.1026 41.7806C28.1385 41.7892 28.1758 41.7904 28.2122 41.7843C28.2238 41.7821 28.235 41.7783 28.2455 41.773C28.2491 41.7712 28.2525 41.7691 28.2557 41.7668C28.2569 41.7659 28.2583 41.7653 28.2573 41.7656C28.2564 41.7659 28.2583 41.7656 28.256 41.7673C28.2519 41.7713 28.2481 41.7757 28.2446 41.7803L28.652 41.7173C28.6468 41.7137 28.6499 41.7157 28.653 41.7173C28.6558 41.7191 28.6589 41.7207 28.662 41.722C28.6694 41.726 28.677 41.7295 28.6847 41.7326C28.7001 41.7401 28.718 41.7455 28.735 41.7516C28.7687 41.7619 28.8033 41.7684 28.8384 41.7711C28.9047 41.7756 28.9711 41.764 29.0319 41.7372C29.1007 41.7022 29.163 41.6555 29.2159 41.5991C29.2452 41.5671 29.2725 41.5295 29.3017 41.4951L29.3796 41.3735L29.7171 41.2276C29.708 41.2253 29.7171 41.2276 29.7186 41.2276L29.7314 41.2287C29.7403 41.2287 29.7501 41.2296 29.7594 41.2295C29.7777 41.2294 29.7959 41.2276 29.8139 41.2241C29.8413 41.2193 29.8674 41.2088 29.8906 41.1934C29.9116 41.179 29.929 41.1598 29.9412 41.1374C29.9606 41.1034 29.9751 41.0668 29.9845 41.0288C30.0069 40.9368 30.011 40.8193 30.0044 40.6968C29.9964 40.5684 29.9787 40.4407 29.9516 40.3149C29.9398 40.2501 29.922 40.1842 29.9082 40.1187L29.8561 39.9193C29.819 39.7781 29.7794 39.6378 29.7444 39.496C29.6761 39.2121 29.6123 38.9277 29.5582 38.6411C29.4528 38.0677 29.3675 37.4897 29.3434 36.9043C29.3368 36.7583 29.338 36.6109 29.3385 36.4647C29.3463 36.3174 29.35 36.1709 29.3692 36.024C29.3758 35.951 29.3876 35.8776 29.3999 35.8048C29.4057 35.7683 29.412 35.7319 29.4189 35.6957L29.4459 35.5883C29.4554 35.5524 29.4625 35.5165 29.4741 35.4809L29.5123 35.376C29.5329 35.3058 29.5769 35.2418 29.6086 35.1783C29.5516 35.4636 29.5734 35.7459 29.5976 36.0269C29.6218 36.3079 29.6669 36.5876 29.7159 36.8663C29.8108 37.4236 29.9289 37.9783 30.075 38.5256C30.1439 38.8002 30.2227 39.0723 30.3051 39.3429C30.344 39.4789 30.3887 39.6129 30.4299 39.7479C30.4737 39.8881 30.5198 40.0352 30.5527 40.1856C30.5892 40.3399 30.6142 40.4968 30.6274 40.6548C30.644 40.8303 30.6329 41.0073 30.5947 41.1794C30.5702 41.2811 30.5303 41.3785 30.4766 41.4683C30.4152 41.5684 30.3322 41.6535 30.2337 41.7174C30.1352 41.7814 30.0237 41.8225 29.9073 41.8378C29.8542 41.8455 29.8006 41.8484 29.747 41.8466C29.7206 41.8466 29.6944 41.8438 29.6677 41.8408L29.6269 41.8352C29.6116 41.8325 29.6022 41.8312 29.5755 41.8251L29.913 41.6794L29.8012 41.8536C29.7562 41.9098 29.7134 41.9667 29.6631 42.0207C29.5594 42.1281 29.4367 42.2278 29.2853 42.2968C29.1313 42.3657 28.9627 42.3955 28.7944 42.3836C28.7125 42.3775 28.6316 42.3621 28.5533 42.3376C28.5145 42.3253 28.4764 42.3111 28.4391 42.2948C28.4204 42.2873 28.4012 42.2773 28.3824 42.268C28.3732 42.2635 28.363 42.258 28.3526 42.2526C28.3422 42.2473 28.3331 42.2419 28.3156 42.2305L28.7229 42.1675C28.713 42.1796 28.7024 42.1912 28.6912 42.2022C28.6821 42.2115 28.6758 42.2175 28.668 42.2239C28.6537 42.2368 28.6388 42.2489 28.6234 42.2601C28.5948 42.2814 28.5646 42.3003 28.533 42.3168C28.4732 42.3482 28.4092 42.3712 28.3431 42.3852C28.2235 42.4094 28.1003 42.4086 27.9811 42.3827C27.7616 42.3349 27.5902 42.2368 27.4399 42.1324C27.4209 42.1187 27.4021 42.1074 27.3828 42.0917L27.3244 42.0416C27.2875 42.0078 27.2428 41.9737 27.2141 41.9389C27.1527 41.8696 27.0874 41.7995 27.0384 41.7285L26.96 41.622L26.8902 41.5146C26.8421 41.4431 26.8008 41.3707 26.7588 41.2983C26.5972 41.0125 26.451 40.7184 26.3207 40.417C26.1897 40.1185 26.0714 39.8225 25.9597 39.512L26.5376 39.308Z" fill="#363636"/>
<path d="M28.3586 42.0225C28.3116 41.9393 28.2703 41.8531 28.235 41.7643C28.1997 41.6758 28.1679 41.5855 28.1408 41.493C28.112 41.3996 28.0909 41.304 28.0776 41.2072C28.0655 41.1102 28.0623 41.0028 28.0945 40.905C28.1491 40.9901 28.2089 41.0584 28.2657 41.1308C28.3224 41.2032 28.3769 41.2748 28.4327 41.3465L28.5973 41.5626C28.6502 41.6348 28.7047 41.7091 28.7507 41.7816L28.3586 42.0225Z" fill="#363636"/>
<path d="M29.437 41.6219C29.3794 41.4302 29.327 41.2373 29.2807 41.0415C29.2566 40.9439 29.2336 40.846 29.2139 40.7468C29.193 40.647 29.1777 40.5462 29.1679 40.4447C29.2935 40.6061 29.4097 40.7684 29.522 40.9336C29.6365 41.0971 29.7473 41.263 29.8548 41.4288L29.437 41.6219Z" fill="#363636"/>
<path d="M43.0658 39.3249C43.058 39.3236 43.0331 39.3199 43.0147 39.318C42.9963 39.3162 42.9739 39.3137 42.9533 39.3122C42.9113 39.3093 42.8682 39.3067 42.8251 39.3051C42.7381 39.3024 42.6511 39.3043 42.5643 39.3108C42.39 39.324 42.2174 39.3544 42.049 39.4016C41.709 39.4976 41.3949 39.6689 41.13 39.9028C40.9958 40.0249 40.873 40.1589 40.7631 40.3033C40.7109 40.3789 40.6543 40.4524 40.6083 40.5334C40.5842 40.5732 40.5575 40.6117 40.5347 40.6526L40.4673 40.7764C40.2866 41.1082 40.1452 41.469 40.0055 41.8413C39.997 41.4386 40.0593 41.0376 40.1895 40.6564C40.3227 40.2607 40.5342 39.8958 40.8114 39.5836C41.103 39.2634 41.4679 39.0187 41.8748 38.8704C42.0783 38.7958 42.2898 38.7454 42.5051 38.7201C42.6129 38.7071 42.7213 38.6999 42.8299 38.6985C42.8845 38.6977 42.9392 38.6985 42.9948 38.7021C43.0224 38.7037 43.0504 38.706 43.0788 38.7087C43.1072 38.7115 43.1327 38.7141 43.1732 38.7205L43.0658 39.3249Z" fill="#363636"/>
<path d="M42.5772 39.1457C42.5653 39.1248 42.5418 39.0864 42.5217 39.0562C42.5016 39.026 42.4795 38.9915 42.457 38.9594C42.4122 38.8953 42.3649 38.8318 42.3158 38.77C42.2174 38.6465 42.1106 38.5299 41.9961 38.4211C41.7699 38.2032 41.506 38.0282 41.2172 37.9045C40.9271 37.7842 40.6091 37.7273 40.279 37.7259C39.9489 37.7246 39.6091 37.7819 39.2649 37.864C39.5592 37.6535 39.8932 37.5048 40.2466 37.427C40.617 37.3477 41.0008 37.3579 41.3664 37.4567C41.7366 37.5563 42.0824 37.7434 42.3773 37.9833C42.5246 38.1035 42.6609 38.2365 42.7848 38.3807C42.8461 38.4527 42.9058 38.5267 42.9606 38.6049C42.9882 38.6439 43.0155 38.6832 43.0411 38.7244C43.0667 38.7657 43.09 38.8033 43.1198 38.8586L42.5772 39.1457Z" fill="#363636"/>
<path d="M35.1315 35.1772C35.0768 35.6095 34.972 36.0252 34.8501 36.4351C34.7281 36.8449 34.5764 37.243 34.43 37.6443C34.2837 38.0456 34.1246 38.442 33.958 38.8381C33.9175 38.9375 33.8743 39.0358 33.8295 39.1338C33.7847 39.2319 33.7428 39.3305 33.6954 39.428L33.5554 39.7207L33.405 40.0122L33.4204 39.9815C33.4129 40.0008 33.4003 40.0366 33.3911 40.0657C33.3819 40.0949 33.3724 40.1271 33.3641 40.1592C33.3479 40.2205 33.3355 40.2827 33.3266 40.3455C33.3082 40.4667 33.3099 40.5838 33.3339 40.6597C33.3607 40.7364 33.3822 40.7617 33.4449 40.7948C33.5118 40.8235 33.6219 40.8432 33.7453 40.8369L34.0642 41.0791C34.0627 41.072 34.0642 41.0782 34.0654 41.0819C34.0667 41.0864 34.0682 41.0909 34.07 41.0952C34.0735 41.1057 34.0777 41.1159 34.0824 41.1259C34.0918 41.1476 34.1025 41.1687 34.1145 41.1891C34.1269 41.2094 34.1407 41.2289 34.1556 41.2474L34.1777 41.2753L34.203 41.2997C34.2738 41.3667 34.3602 41.4149 34.4544 41.4399C34.5523 41.4727 34.6723 41.4718 34.791 41.4706C34.8524 41.4626 34.9148 41.4566 34.9772 41.4474L35.1678 41.4052L35.4132 41.4431C35.4097 41.441 35.4167 41.4448 35.4213 41.4471C35.4259 41.4494 35.4319 41.4525 35.438 41.4552C35.4495 41.4611 35.4621 41.4664 35.4755 41.4716C35.5016 41.4824 35.5283 41.4915 35.5555 41.4989C35.6084 41.5136 35.6627 41.5224 35.7175 41.5252C35.8205 41.5313 35.9231 41.5077 36.013 41.4571C36.105 41.4054 36.1925 41.3242 36.2724 41.2257C36.292 41.2007 36.309 41.1714 36.3282 41.1449C36.3469 41.1159 36.3661 41.0943 36.385 41.0598C36.4223 40.994 36.4617 40.93 36.4977 40.8626C36.6448 40.5945 36.7772 40.3122 36.9025 40.0278L36.9946 39.8131L37.0802 39.5954C37.1406 39.4515 37.1902 39.304 37.2449 39.1571C37.4505 38.5678 37.6169 37.9631 37.7205 37.347C37.7323 37.2703 37.7475 37.1936 37.7588 37.1159L37.7895 36.8839C37.8156 36.7291 37.8257 36.5737 37.8463 36.4174L37.8605 36.3001L37.8677 36.1824L37.8881 35.9456C37.9016 35.7869 37.9009 35.628 37.9188 35.464C37.9725 35.618 38.0173 35.7749 38.0529 35.9341C38.079 36.0939 38.115 36.2562 38.1232 36.4187C38.1359 36.5814 38.1491 36.7455 38.1426 36.9086L38.137 37.154C38.1333 37.2357 38.1242 37.3167 38.117 37.398C38.0557 38.0482 37.932 38.6911 37.7476 39.3178C37.6556 39.6305 37.5553 39.9416 37.4341 40.2455C37.3129 40.5494 37.1886 40.8522 37.0339 41.1472C36.9963 41.2213 36.9542 41.2946 36.9145 41.3686C36.896 41.4045 36.866 41.4463 36.842 41.4848C36.8179 41.5233 36.7923 41.5635 36.763 41.6014C36.6445 41.7524 36.4996 41.897 36.3129 42.0027C36.1225 42.1094 35.9055 42.1594 35.6876 42.1466C35.5829 42.1412 35.4793 42.1228 35.3791 42.0918C35.3298 42.0767 35.2814 42.0589 35.2342 42.0383C35.2105 42.0283 35.1868 42.0173 35.163 42.0049C35.151 41.9989 35.1394 41.9931 35.1265 41.9855C35.1136 41.978 35.103 41.9726 35.0826 41.9598L35.3281 41.9977L35.0852 42.0512C35.0018 42.0642 34.9165 42.0731 34.8312 42.0819C34.6557 42.0857 34.4748 42.0859 34.2886 42.0288C34.0962 41.9759 33.9201 41.8757 33.7763 41.7373L33.7229 41.6836L33.6752 41.6252C33.6439 41.5862 33.6152 41.5452 33.5893 41.5025C33.5637 41.4591 33.5408 41.4142 33.5207 41.3681C33.51 41.3445 33.5006 41.3204 33.4923 41.2958C33.4879 41.2837 33.4834 41.2711 33.4794 41.2567C33.4754 41.2423 33.4715 41.2311 33.4658 41.206L33.7847 41.4482C33.6067 41.4598 33.4066 41.4565 33.1929 41.3673C33.0801 41.3185 32.9797 41.2451 32.8988 41.1526C32.8207 41.061 32.7631 40.9537 32.7301 40.8379C32.6687 40.6218 32.6798 40.4281 32.7063 40.2509C32.7205 40.164 32.7398 40.078 32.764 39.9933C32.7761 39.9518 32.7887 39.9105 32.8029 39.8694C32.8172 39.8283 32.8304 39.791 32.8517 39.7402V39.7391C32.8559 39.7293 32.8606 39.7197 32.8658 39.7103C33.0685 39.3527 33.2579 38.9783 33.4425 38.6009C33.6298 38.2246 33.804 37.8399 33.9837 37.4572C34.1633 37.0744 34.328 36.6842 34.5132 36.3021C34.6983 35.9199 34.895 35.5426 35.1315 35.1772Z" fill="#363636"/>
<path d="M33.5592 41.0375C33.6189 40.9541 33.6789 40.8714 33.7413 40.7898C33.8037 40.7082 33.8671 40.6273 33.9303 40.5463C33.9935 40.4653 34.0599 40.386 34.1259 40.3064C34.1918 40.2268 34.261 40.149 34.3343 40.0749L34.2481 40.3725L34.1587 40.667C34.128 40.7645 34.0983 40.8629 34.0657 40.9596C34.0332 41.0562 34.0013 41.1533 33.9679 41.2492L33.5592 41.0375Z" fill="#363636"/>
<path d="M35.0475 41.587L35.4738 41.0194C35.5436 40.9237 35.6173 40.8296 35.6861 40.733C35.7586 40.6381 35.8259 40.5393 35.8877 40.4371C35.8796 40.5598 35.8474 40.6785 35.8167 40.796C35.7823 40.9123 35.7473 41.0287 35.707 41.1426C35.6667 41.2564 35.6271 41.3707 35.5829 41.4826C35.5387 41.5946 35.4942 41.7058 35.4461 41.8177L35.0475 41.587Z" fill="#363636"/>
<path d="M33.2051 32.3153C30.3343 32.3153 27.7691 31.7674 25.7875 30.7304C25.2875 30.4704 24.8117 30.1665 24.3656 29.8223H24.3405V29.8022C24.1356 29.6423 23.939 29.4722 23.7512 29.2926C23.1927 28.759 22.7388 28.16 22.4013 27.5131C21.9126 26.572 21.665 25.5209 21.665 24.389C21.665 23.363 21.8732 22.3359 22.2835 21.3363C22.3794 20.5047 22.461 19.833 22.5403 19.2242C22.827 17.0391 23.2334 14.4815 24.0743 12.0794C24.1706 11.8008 24.3305 11.5485 24.5414 11.3426C24.7523 11.1367 25.0083 10.9828 25.2891 10.8932C25.5661 10.8025 25.8605 10.7778 26.1488 10.8209C26.4371 10.8641 26.7114 10.9739 26.9498 11.1417C28.3374 12.1122 29.7768 13.5408 30.616 14.7814L30.6335 14.8073C31.5348 14.6126 32.4544 14.5149 33.3765 14.5159C34.2147 14.5156 35.0509 14.5978 35.8731 14.7613C36.7149 13.526 38.1458 12.1075 39.5257 11.1427C39.7642 10.9749 40.0386 10.8651 40.3271 10.822C40.6156 10.7789 40.9101 10.8037 41.1873 10.8945C41.468 10.9841 41.7239 11.138 41.9346 11.3439C42.1453 11.5497 42.3051 11.802 42.4012 12.0805C42.708 12.9588 42.97 13.8857 43.2004 14.9138C43.6768 17.0307 43.9554 19.2825 44.1999 21.4081L44.2048 21.4501C44.3001 21.7065 44.382 21.9616 44.4489 22.209C44.6443 22.9196 44.7437 23.6531 44.7443 24.3901C44.7443 26.3623 44.0157 28.0379 42.5785 29.3703C42.4251 29.5133 42.2594 29.6551 42.071 29.8035V29.8233H42.0454C41.3672 30.3516 40.5648 30.8075 39.6602 31.1785C38.1797 31.7844 36.4666 32.153 34.5682 32.274C34.1301 32.301 33.6718 32.3153 33.2051 32.3153ZM24.4165 29.7646C24.8581 30.105 25.329 30.4054 25.8237 30.6624C27.7944 31.6936 30.3471 32.2386 33.2057 32.2386C33.6707 32.2386 34.1275 32.2243 34.5635 32.1963C36.4543 32.0757 38.1593 31.7091 39.632 31.1071C40.5284 30.739 41.3234 30.2881 41.9953 29.7653L42.0106 29.7538C42.2033 29.6026 42.3723 29.4585 42.5277 29.3134C43.9488 27.9959 44.6692 26.3392 44.6692 24.3893C44.6685 23.6592 44.5701 22.9325 44.3765 22.2285C44.3045 21.9624 44.215 21.6876 44.1102 21.4116L44.0608 21.2816L44.1146 21.3244C43.8729 19.2277 43.5958 17.012 43.1269 14.9297C42.8968 13.9046 42.636 12.9806 42.3304 12.1052C42.2381 11.8378 42.0847 11.5956 41.8823 11.3979C41.6799 11.2003 41.4341 11.0526 41.1646 10.9666C40.8987 10.8796 40.6161 10.8557 40.3393 10.8971C40.0626 10.9385 39.7993 11.0438 39.5705 11.2049C38.1899 12.1713 36.7582 13.5915 35.9231 14.8251L35.9088 14.8463L35.8838 14.8412C35.0586 14.6755 34.219 14.5922 33.3774 14.5926C32.4086 14.5919 31.4429 14.7006 30.4985 14.9167L30.3336 14.9527L30.5331 14.7944C29.6952 13.5672 28.2752 12.1619 26.9056 11.204C26.6769 11.043 26.4138 10.9377 26.1372 10.8963C25.8606 10.8549 25.5782 10.8786 25.3124 10.9656C25.0429 11.0516 24.7972 11.1994 24.5948 11.397C24.3924 11.5947 24.2389 11.8369 24.1466 12.1043C23.3085 14.4996 22.9029 17.0523 22.6169 19.2335C22.5375 19.8436 22.4558 20.5159 22.3596 21.3504L22.357 21.3606C21.9491 22.3524 21.7422 23.3713 21.7422 24.389C21.7422 25.5088 21.9876 26.5478 22.4702 27.4777C22.8032 28.118 23.2525 28.7103 23.8048 29.238C23.9953 29.4199 24.1949 29.592 24.403 29.7535L24.4165 29.7646Z" fill="#363636"/>
<path d="M40.1795 30.8232C40.1795 30.8232 39.9768 30.9436 39.6461 31.1418C38.1635 31.7487 36.433 32.1156 34.5661 32.2345C34.1199 32.2633 33.6665 32.2775 33.2059 32.277C30.3878 32.277 27.8062 31.743 25.806 30.697C25.3305 29.2455 26.6037 28.2119 28.6688 27.5523C29.4487 27.3028 30.0592 26.6802 30.2553 25.8851C31.0654 22.6023 34.966 22.6023 35.7763 25.8851C35.9723 26.6802 36.5827 27.3028 37.3626 27.5523C39.4867 28.2307 40.7741 29.3045 40.1795 30.8232Z" fill="white"/>
<g opacity="0.6">
<path d="M39.4698 11.1728C39.3471 11.259 39.2244 11.3483 39.1017 11.4399C40.0774 10.9714 41.2824 11.4469 41.6553 12.5128C42.6539 15.3674 43.0735 18.5348 43.4519 21.8317L43.4344 21.8183C43.7995 22.7734 43.9962 23.7808 43.9962 24.8096C43.9962 26.848 43.1985 28.5047 41.8425 29.7618C41.6774 29.9158 41.5041 30.0633 41.3226 30.2042H41.3218C41.2483 30.2619 41.1733 30.3188 41.0966 30.374C41.3936 30.1939 41.6798 29.9966 41.9538 29.7831C41.954 29.7832 41.9541 29.7833 41.9543 29.7833C41.9544 29.7833 41.9546 29.7832 41.9547 29.7831C42.1356 29.6417 42.3094 29.4947 42.4746 29.3406C43.8304 28.0836 44.6283 26.4269 44.6283 24.3885C44.6283 23.3598 44.4315 22.3524 44.0666 21.3972L44.0839 21.4107C43.7055 18.1137 43.2863 14.9464 42.2873 12.0918C41.8794 10.928 40.4795 10.4673 39.4698 11.1728Z" fill="white"/>
</g>
<g opacity="0.6">
<path d="M24.463 11.3965C24.7485 11.2795 25.0587 11.2363 25.3653 11.2708C25.6718 11.3053 25.9647 11.4164 26.217 11.5939C27.5 12.4908 28.7464 13.7122 29.5746 14.8064C29.6681 14.9281 29.7931 15.022 29.9361 15.0777C30.0791 15.1334 30.2346 15.1488 30.3858 15.1224H30.3909H30.3918C30.4392 15.0346 30.4913 14.9406 30.5418 14.8498C30.4984 14.8593 30.4541 14.8688 30.4107 14.8791L30.5062 14.8024C29.7004 13.6126 28.2973 12.1857 26.849 11.1728C26.0756 10.6324 25.0726 10.7763 24.463 11.3965Z" fill="white"/>
</g>
<path d="M38.7813 15.8113C39.2679 14.9202 39.8976 14.0753 40.3511 13.5123C40.5921 13.212 41.0733 13.3218 41.161 13.6972C41.3822 14.6429 41.6935 16.2388 41.7386 17.8963V17.8971" fill="#FF5253"/>
<path d="M41.7381 17.8971H41.6998C41.6561 16.2824 41.3623 14.7267 41.1233 13.7059C41.1056 13.6283 41.0662 13.5573 41.0097 13.5011C40.9532 13.445 40.882 13.406 40.8042 13.3887C40.7269 13.3702 40.6459 13.3742 40.5708 13.4004C40.4957 13.4265 40.4297 13.4737 40.3807 13.5363C39.9358 14.0885 39.3032 14.935 38.8146 15.8298L38.7473 15.7929C39.2382 14.8932 39.8743 14.0431 40.321 13.4883C40.3798 13.4152 40.4579 13.3601 40.5464 13.3292C40.635 13.2984 40.7304 13.2931 40.8218 13.3139C40.9133 13.3347 40.997 13.3807 41.0635 13.4468C41.13 13.5129 41.1766 13.5964 41.198 13.6877C41.4376 14.7119 41.7324 16.2732 41.7765 17.8945L41.7381 17.8971Z" fill="#363636"/>
<g opacity="0.6">
<path d="M38.3595 16.2778L40.4409 17.6684C40.622 17.7895 40.8278 17.8688 41.0433 17.9007C41.2589 17.9325 41.4788 17.916 41.6872 17.8525L38.7808 15.8123C39.2674 14.9202 39.8971 14.0753 40.3505 13.5123C40.352 13.5101 40.3539 13.5081 40.3562 13.5067C40.1807 13.2942 39.8331 13.2713 39.6395 13.5123C39.2635 13.9794 38.6676 14.7616 38.1975 15.5234C38.1215 15.6456 38.0958 15.7926 38.1261 15.9334C38.1563 16.0741 38.24 16.1976 38.3595 16.2778Z" fill="white"/>
</g>
<g opacity="0.3">
<path d="M40.1759 13.7327C40.1922 13.7654 40.2047 13.7998 40.213 13.8354C40.3971 14.6199 40.6425 15.8532 40.7464 17.1971L41.7387 17.8971V17.8963C41.6936 16.2396 41.3824 14.6429 41.1612 13.6971C41.0734 13.3218 40.5922 13.2119 40.3512 13.5123C40.2952 13.5818 40.2368 13.6553 40.1759 13.7327Z" fill="#363636"/>
</g>
<path d="M24.5797 17.8971V17.8963C24.6247 16.2396 24.9361 14.6429 25.1573 13.6972C25.2449 13.3218 25.7261 13.212 25.9671 13.5123C26.4205 14.0756 27.0502 14.9202 27.537 15.8113" fill="#FF5253"/>
<path d="M24.6181 17.8974L24.5414 17.8964C24.5854 16.2743 24.8804 14.7129 25.1198 13.6885C25.1412 13.5971 25.1878 13.5136 25.2543 13.4475C25.3208 13.3814 25.4046 13.3353 25.496 13.3145C25.5875 13.2937 25.683 13.299 25.7715 13.3299C25.8601 13.3608 25.9382 13.4159 25.997 13.489C26.4437 14.044 27.0794 14.8943 27.5705 15.7937L27.5034 15.8305C27.0148 14.9361 26.382 14.0897 25.9371 13.537C25.8882 13.4744 25.8222 13.4271 25.7471 13.401C25.672 13.3748 25.5909 13.3708 25.5136 13.3895C25.4359 13.4068 25.3646 13.4458 25.3081 13.5019C25.2517 13.5581 25.2123 13.6291 25.1945 13.7067C24.9558 14.7268 24.6619 16.2829 24.6181 17.8974Z" fill="#363636"/>
<g opacity="0.6">
<path d="M24.5793 17.9964L24.5858 17.698C24.649 16.1125 24.9444 14.605 25.1569 13.6972C25.1715 13.6318 25.2002 13.5703 25.2408 13.517C25.0015 13.4452 24.7209 13.5771 24.6562 13.8545C24.4578 14.7023 24.1872 16.0726 24.1009 17.5414C24.0967 17.6043 24.1064 17.6673 24.1293 17.726C24.1523 17.7847 24.1878 17.8376 24.2335 17.881C24.2791 17.9245 24.3338 17.9573 24.3935 17.9772C24.4533 17.9972 24.5167 18.0037 24.5793 17.9964Z" fill="white"/>
</g>
<g opacity="0.3">
<path d="M25.0729 14.0676C25.1014 14.0901 25.1271 14.1158 25.1496 14.1443C25.596 14.6989 26.2139 15.5269 26.6966 16.4031L27.5356 15.8113C27.049 14.9202 26.4193 14.0756 25.9657 13.5123C25.7247 13.2119 25.2436 13.3218 25.1559 13.6971C25.1298 13.8117 25.1025 13.9349 25.0729 14.0676Z" fill="#363636"/>
</g>
<path d="M31.7143 25.2326C31.7143 25.5503 32.1533 25.8067 32.6933 25.8054C33.2332 25.804 33.6704 25.5455 33.6697 25.2278C33.6689 24.9101 33.2311 24.8839 32.6911 24.8851C32.1512 24.8863 31.7126 24.915 31.7143 25.2326Z" fill="#363636"/>
<path d="M30.5947 25.5572C30.6679 25.7851 30.7667 25.997 30.9189 26.1312C31.0654 26.2692 31.2517 26.3246 31.4418 26.3143C31.6319 26.3041 31.8253 26.2289 31.9848 26.114C32.065 26.0568 32.1372 25.9892 32.1996 25.9131L32.2441 25.8552L32.2927 25.7834C32.3358 25.7217 32.3931 25.6713 32.4597 25.6365C32.5264 25.6016 32.6005 25.5833 32.6757 25.5831C32.751 25.5829 32.8251 25.6009 32.892 25.6354C32.9588 25.67 33.0163 25.7201 33.0597 25.7816L33.1086 25.8531L33.1533 25.9109C33.2161 25.9866 33.2886 26.0536 33.369 26.1103C33.5299 26.2243 33.7227 26.3005 33.9134 26.3082C34.1041 26.3159 34.2898 26.2622 34.4349 26.1223C34.5865 25.9871 34.6841 25.7748 34.7559 25.5464L34.7566 25.5441C34.7622 25.5261 34.774 25.5107 34.7899 25.5006C34.8057 25.4904 34.8247 25.4862 34.8434 25.4887C34.862 25.4911 34.8792 25.5001 34.8919 25.514C34.9046 25.5279 34.912 25.5459 34.9128 25.5647C34.9237 25.8227 34.8737 26.1042 34.7029 26.3489C34.6137 26.4722 34.4985 26.5744 34.3654 26.6483C34.2298 26.7213 34.0802 26.7647 33.9266 26.7756C33.6218 26.8003 33.3249 26.7094 33.0746 26.5538C32.9489 26.4745 32.8353 26.3777 32.7371 26.2662C32.713 26.2376 32.6895 26.2086 32.6665 26.1789L32.6342 26.1329L32.6188 26.1097C32.6138 26.1022 32.6058 26.0908 32.6104 26.0984C32.6176 26.1096 32.6275 26.1189 32.6392 26.1254C32.6509 26.1318 32.6641 26.1352 32.6774 26.1352C32.6908 26.1352 32.704 26.1318 32.7157 26.1254C32.7274 26.1189 32.7373 26.1096 32.7445 26.0984C32.7489 26.0908 32.7411 26.1023 32.736 26.1099L32.7207 26.133L32.6885 26.179L32.6187 26.2668C32.5206 26.3789 32.4069 26.4763 32.2812 26.5563C32.0316 26.7129 31.7353 26.8058 31.4301 26.7822C31.2764 26.7721 31.1265 26.7295 30.9903 26.6572C30.8569 26.5839 30.7412 26.4821 30.6515 26.3591C30.4798 26.1151 30.4283 25.8339 30.4383 25.5757C30.4389 25.5569 30.4462 25.5389 30.4588 25.525C30.4714 25.511 30.4886 25.5019 30.5072 25.4994C30.5259 25.4968 30.5448 25.5009 30.5607 25.5109C30.5767 25.521 30.5885 25.5363 30.5943 25.5543L30.5947 25.5572Z" fill="#363636"/>
<path d="M37.7801 25.9886C38.8028 25.9861 39.6293 24.9324 39.6262 23.6351C39.623 22.3377 38.7913 21.2881 37.7686 21.2906C36.7458 21.2931 35.9193 22.3468 35.9225 23.6441C35.9257 24.9414 36.7573 25.9911 37.7801 25.9886Z" fill="white"/>
<path d="M37.7765 26.2287C36.6251 26.2287 35.6861 25.0707 35.6827 23.6449C35.6794 22.219 36.6148 21.0538 37.7681 21.051H37.7722C38.9238 21.051 39.8626 22.2089 39.866 23.6347C39.8677 24.3158 39.6583 24.959 39.2766 25.4449C38.8816 25.9485 38.3504 26.2272 37.7806 26.2272L37.7765 26.2287ZM37.7724 21.5307H37.7693C36.8805 21.5329 36.1597 22.4809 36.1624 23.6438C36.1652 24.8067 36.8891 25.7491 37.7765 25.7491H37.7794C38.1991 25.748 38.5967 25.5343 38.8992 25.1497C39.2148 24.7474 39.3878 24.2098 39.3864 23.636C39.3835 22.4743 38.6598 21.5306 37.7724 21.5306V21.5307Z" fill="#363636"/>
<path d="M37.4761 25.7846C38.2955 25.7826 38.9576 24.9224 38.955 23.8633C38.9525 22.8042 38.2861 21.9473 37.4667 21.9493C36.6473 21.9513 35.9851 22.8115 35.9877 23.8706C35.9903 24.9296 36.6566 25.7866 37.4761 25.7846Z" fill="#363636"/>
<path d="M37.8183 23.7232C38.0103 23.7228 38.1654 23.4946 38.1647 23.2135C38.164 22.9325 38.0078 22.7051 37.8158 22.7056C37.6239 22.706 37.4688 22.9342 37.4695 23.2152C37.4702 23.4963 37.6263 23.7237 37.8183 23.7232Z" fill="white"/>
<path d="M29.5633 23.6445C29.5664 22.3472 28.7399 21.2935 27.7172 21.291C26.6944 21.2885 25.8628 22.3382 25.8596 23.6355C25.8564 24.9328 26.6829 25.9865 27.7057 25.989C28.7284 25.9915 29.5601 24.9419 29.5633 23.6445Z" fill="white"/>
<path d="M27.7093 26.2287H27.7052C27.1356 26.2274 26.6042 25.9492 26.2094 25.4464C25.8275 24.9595 25.6181 24.3164 25.6198 23.6354C25.6234 22.2097 26.5623 21.0516 27.7136 21.0516H27.7179C28.8712 21.0544 29.8066 22.2175 29.8032 23.6455C29.7998 25.0735 28.8613 26.2287 27.7093 26.2287ZM26.0995 23.6363C26.0981 24.21 26.2712 24.7475 26.5867 25.15C26.8891 25.5354 27.2867 25.7483 27.7065 25.7494H27.7095C28.597 25.7494 29.3202 24.8058 29.3237 23.6441C29.3272 22.4824 28.6056 21.5332 27.7168 21.531H27.7137C26.8263 21.531 26.103 22.4746 26.0997 23.6363H26.0995Z" fill="#363636"/>
<path d="M29.4982 23.8707C29.5008 22.8116 28.8387 21.9515 28.0193 21.9495C27.1998 21.9475 26.5335 22.8044 26.5309 23.8635C26.5283 24.9226 27.1905 25.7828 28.0099 25.7848C28.8293 25.7868 29.4957 24.9298 29.4982 23.8707Z" fill="#363636"/>
<path d="M28.0163 23.2157C28.017 22.9346 27.862 22.7064 27.67 22.706C27.478 22.7055 27.3218 22.9329 27.3211 23.214C27.3204 23.495 27.4755 23.7232 27.6675 23.7236C27.8595 23.7241 28.0156 23.4967 28.0163 23.2157Z" fill="white"/>
<path d="M33.9271 26.549C33.9271 26.8816 33.8291 27.1473 33.6711 27.3478C33.197 27.9507 32.1849 27.9507 31.7109 27.3478C31.5529 27.1484 31.4549 26.8816 31.4549 26.549C31.9344 26.4527 32.3547 26.2765 32.6913 25.9888C33.0398 26.3013 33.4371 26.5182 33.9271 26.549Z" fill="#363636"/>
<path d="M33.6713 27.3478C33.1973 27.9507 32.1852 27.9507 31.7112 27.3478C32.1844 26.7434 33.1981 26.7434 33.6713 27.3478Z" fill="#F42C4F"/>
<path d="M32.6913 28.0763C32.299 28.0763 31.9316 27.9401 31.6566 27.6928C31.4386 27.4966 31.1788 27.1392 31.1788 26.5494H31.7318C31.7318 27.222 32.2137 27.5232 32.6913 27.5232C33.1688 27.5232 33.6508 27.222 33.6508 26.5494H34.203C34.2038 27.5518 33.4429 28.0763 32.6913 28.0763Z" fill="#363636"/>
<path d="M41.7387 18.1737C41.6707 18.1737 41.6052 18.1485 41.5546 18.1032C40.6262 17.2724 39.6497 16.5836 38.6524 16.0557C38.62 16.0386 38.5914 16.0153 38.5681 15.987C38.5448 15.9587 38.5274 15.9261 38.5169 15.891C38.5064 15.8559 38.5029 15.8191 38.5067 15.7827C38.5106 15.7462 38.5216 15.711 38.5392 15.6788C39.0385 14.7633 39.6833 13.9011 40.1364 13.339C40.2232 13.2312 40.3386 13.1499 40.4694 13.1044C40.6001 13.059 40.7411 13.0512 40.876 13.082C41.011 13.1128 41.1346 13.181 41.2327 13.2787C41.3309 13.3763 41.3995 13.4996 41.431 13.6345C41.673 14.6693 41.9711 16.2476 42.0156 17.889C42.0156 17.8916 42.0156 17.8949 42.0156 17.8973C42.0156 17.9705 41.9865 18.0408 41.9347 18.0926C41.8829 18.1443 41.8127 18.1734 41.7394 18.1734L41.7387 18.1737ZM39.16 15.7025C39.9359 16.1344 40.6974 16.6594 41.4325 17.2687C41.3426 15.9099 41.0967 14.6362 40.8918 13.7601C40.8839 13.7263 40.8667 13.6953 40.8421 13.6707C40.8175 13.6462 40.7865 13.629 40.7526 13.6212C40.7188 13.6135 40.6834 13.6153 40.6505 13.6267C40.6177 13.638 40.5887 13.6584 40.5669 13.6854C40.1685 14.1803 39.6176 14.9134 39.16 15.7025Z" fill="#363636"/>
<path d="M33.1268 32.5931C29.8046 32.5931 26.9336 31.8834 24.8242 30.5403C22.5246 29.0761 21.309 26.9488 21.309 24.389C21.309 23.3385 21.519 22.2887 21.9334 21.2675C22.3089 18.0059 22.7341 14.8435 23.7332 11.988C23.8431 11.6706 24.0251 11.383 24.2648 11.1478C24.5045 10.9125 24.7954 10.7359 25.1147 10.6319C25.4341 10.5279 25.7732 10.4992 26.1055 10.5482C26.4377 10.5972 26.7542 10.7225 27.0299 10.9142C28.3952 11.8687 29.8118 13.262 30.6808 14.4985C32.3251 14.1674 34.0386 14.1519 35.6709 14.4536C36.5415 13.2284 37.9403 11.8573 39.2892 10.9144C39.5649 10.7226 39.8814 10.5973 40.2136 10.5483C40.5459 10.4993 40.885 10.5279 41.2044 10.632C41.5238 10.736 41.8147 10.9126 42.0544 11.1479C42.2941 11.3832 42.476 11.6708 42.5859 11.9882C43.5959 14.875 44.0196 18.0758 44.3983 21.3755C44.3983 21.3775 44.3983 21.3795 44.3983 21.3814C44.7605 22.3623 44.9441 23.3738 44.9441 24.3893C44.9441 26.9497 43.7287 29.0771 41.4293 30.5407C39.3199 31.8834 36.4491 32.5931 33.1268 32.5931ZM22.4742 21.6169C22.1204 22.5267 21.941 23.4577 21.941 24.3884C21.941 26.7219 23.0555 28.6649 25.1637 30.0071C27.1425 31.2672 29.9707 31.9611 33.1268 31.9611C36.2829 31.9611 39.1108 31.2672 41.0898 30.0071C43.1977 28.6649 44.3112 26.7219 44.3112 24.3884C44.3112 23.4234 44.1317 22.4611 43.778 21.5283C43.7591 21.4786 43.753 21.4249 43.7605 21.3722C43.388 18.1355 42.9689 14.9999 41.9879 12.196C41.9097 11.9691 41.7796 11.7636 41.6079 11.5958C41.4362 11.428 41.2278 11.3026 40.9991 11.2296C40.7739 11.1558 40.5346 11.1357 40.3002 11.1708C40.0659 11.2059 39.8429 11.2953 39.6492 11.4318C38.295 12.3784 36.8911 13.771 36.0727 14.9796C36.0377 15.031 35.9884 15.071 35.9309 15.0946C35.8734 15.1182 35.8102 15.1244 35.7492 15.1123C34.0618 14.7719 32.2747 14.7902 30.5738 15.1663C30.5315 15.1757 30.4878 15.1762 30.4454 15.168C30.4029 15.1598 30.3626 15.1429 30.3269 15.1185C30.2912 15.094 30.2609 15.0625 30.2379 15.0259C30.2149 14.9892 30.1997 14.9483 30.1932 14.9055C29.3682 13.7145 27.9939 12.3591 26.6671 11.4316C26.4735 11.2952 26.2508 11.206 26.0166 11.1709C25.7824 11.1358 25.5432 11.1558 25.3181 11.2294C25.0894 11.3024 24.8809 11.4278 24.7092 11.5956C24.5375 11.7633 24.4074 11.9689 24.3292 12.1959C23.3489 14.9974 22.9298 18.1303 22.5577 21.3638C22.557 21.3753 22.5557 21.3867 22.5537 21.398C22.5519 21.4143 22.55 21.4302 22.5482 21.4463C22.5413 21.5094 22.5155 21.5688 22.4742 21.6169Z" fill="#363636"/>
<path d="M24.5795 18.1737C24.5406 18.1737 24.5021 18.1656 24.4666 18.1497C24.4311 18.1339 24.3994 18.1107 24.3734 18.0818C24.3475 18.0528 24.328 18.0187 24.3161 17.9817C24.3043 17.9446 24.3004 17.9055 24.3047 17.8669C24.3201 17.7333 24.6655 14.5851 24.8876 13.634C24.9191 13.4991 24.9878 13.3758 25.086 13.2781C25.1842 13.1804 25.3079 13.1123 25.4429 13.0816C25.5779 13.0508 25.7189 13.0586 25.8497 13.1042C25.9805 13.1497 26.0959 13.231 26.1826 13.339C26.6352 13.9012 27.2799 14.7638 27.7795 15.6786C27.8138 15.7413 27.8225 15.8147 27.8038 15.8836C27.7851 15.9525 27.7405 16.0115 27.6792 16.0482C26.7574 16.6021 25.7999 17.2775 24.752 18.1133C24.703 18.1523 24.6422 18.1736 24.5795 18.1737ZM25.6092 13.616C25.5946 13.6161 25.5801 13.6177 25.5658 13.6209C25.5316 13.6281 25.5001 13.6451 25.4753 13.6698C25.4505 13.6945 25.4333 13.7258 25.4259 13.7601C25.2711 14.4218 25.0446 16.2749 24.9284 17.2729C25.7119 16.6708 26.4491 16.1571 27.1646 15.7148C26.7057 14.9216 26.1521 14.1836 25.7511 13.6863C25.7346 13.6643 25.7131 13.6465 25.6885 13.6343C25.6639 13.6221 25.6367 13.6159 25.6092 13.616Z" fill="#363636"/>
<g opacity="0.2">
<path d="M34.2676 15.7111C35.6728 15.935 36.8104 16.3541 37.622 17.011C37.9098 17.2438 37.7966 17.7092 37.4352 17.7895C35.811 18.1501 34.5559 17.7622 33.8022 16.3579C33.629 16.0352 33.9059 15.6534 34.2676 15.7111Z" fill="white"/>
</g>
<g opacity="0.2">
<path d="M39.3924 19.2756C39.655 19.0777 39.6473 18.6244 39.3752 18.2631C39.1031 17.9019 38.6696 17.7692 38.4068 17.9669C38.144 18.1647 38.3148 18.4958 38.5863 18.8566C38.8578 19.2174 39.1296 19.4725 39.3924 19.2756Z" fill="white"/>
</g>
<g opacity="0.3">
<path d="M27.9243 26.3128C27.6553 26.4069 27.3724 26.4551 27.0875 26.4556C26.7474 26.4557 26.4094 26.4019 26.0861 26.2964L24.2479 21.5635C24.6007 21.0926 25.1197 20.7796 25.7052 20.5985L27.9243 26.3128Z" fill="white"/>
</g>
<g opacity="0.3">
<path d="M39.8398 26.1591C39.4144 26.3539 38.952 26.455 38.4841 26.4557C38.3595 26.4556 38.2352 26.4462 38.1121 26.4274L36.1071 21.2643C36.4963 20.8743 37.0262 20.6094 37.6358 20.4846L39.8398 26.1591Z" fill="white"/>
</g>
<g opacity="0.3">
<path d="M41.4616 24.6099C41.2492 25.0249 40.9537 25.3918 40.5933 25.6875L38.5405 20.4008C39.0073 20.4055 39.4775 20.4721 39.9093 20.6115L41.4616 24.6099Z" fill="white"/>
</g>
<g opacity="0.3">
<path d="M29.7835 24.6099C29.5711 25.0249 29.2755 25.3917 28.9151 25.6875L26.8622 20.4008C27.3288 20.4055 27.799 20.4721 28.2308 20.6115L29.7835 24.6099Z" fill="white"/>
</g>
<path d="M44.3284 20.7076C43.92 20.748 43.508 20.6893 43.1271 20.5367C42.996 20.4845 42.8758 20.4083 42.7619 20.3253C39.8976 18.2153 36.4064 19.0616 33.9421 20.7933C33.1714 20.1081 32.4005 20.1081 31.6296 20.7933C29.1654 19.0616 25.6743 18.2153 22.8099 20.3253C22.6961 20.4083 22.5758 20.4845 22.4448 20.5367C22.0642 20.6894 21.6524 20.748 21.2443 20.7076C21.2202 20.705 21.1958 20.7074 21.1727 20.7149C21.1496 20.7223 21.1283 20.7345 21.1102 20.7507C21.0922 20.7669 21.0777 20.7867 21.0678 20.8088C21.0579 20.831 21.0527 20.855 21.0527 20.8792V21.4792C21.0531 21.5194 21.0675 21.5583 21.0934 21.5891C21.1193 21.6199 21.1552 21.6407 21.1948 21.6479C21.8237 21.7688 22.1627 22.2698 22.2787 23.0627C23.9075 30.4259 31.7272 28.3704 31.7547 22.2115C31.7553 22.0709 31.8049 21.935 31.8948 21.8269C31.9847 21.7188 32.1094 21.6453 32.2475 21.6191C32.614 21.5478 32.9743 21.5424 33.3272 21.6082C33.4651 21.6344 33.5896 21.7079 33.6792 21.816C33.7688 21.9242 33.8179 22.0602 33.818 22.2006C33.8366 28.3673 41.6644 30.4299 43.294 23.0627C43.4094 22.2698 43.7484 21.7688 44.3772 21.6479C44.4168 21.6408 44.4527 21.62 44.4787 21.5892C44.5046 21.5584 44.519 21.5195 44.5192 21.4792V20.8792C44.5193 20.855 44.5143 20.831 44.5044 20.8089C44.4946 20.7867 44.4802 20.7669 44.4622 20.7507C44.4442 20.7345 44.423 20.7223 44.3999 20.7149C44.3768 20.7074 44.3525 20.705 44.3284 20.7076ZM27.0876 26.4556C25.3751 26.4556 23.9027 25.0904 23.7742 23.4231C23.6054 21.2258 25.3755 20.4 27.0876 20.4C28.7997 20.4 30.1621 21.3542 30.1621 23.027C30.1621 24.6998 28.8009 26.4556 27.0876 26.4556ZM41.7987 23.4231C41.6697 25.0904 40.1973 26.4556 38.4852 26.4556C36.7731 26.4556 35.4108 24.6984 35.4108 23.027C35.4108 21.3555 36.7727 20.4 38.4852 20.4C40.1978 20.4 41.9671 21.2258 41.7982 23.4231H41.7987Z" fill="#F42C4F"/>
<path d="M26.9357 27.8036C25.9846 27.8036 25.0656 27.4702 24.3081 26.8436C23.3213 26.027 22.6066 24.7225 22.2412 23.071C22.1211 22.2511 21.7767 21.7989 21.1875 21.6857C21.1392 21.6766 21.0955 21.6511 21.0639 21.6135C21.0323 21.5758 21.0148 21.5283 21.0143 21.4792V20.8793C21.0144 20.8496 21.0206 20.8203 21.0327 20.7932C21.0448 20.7662 21.0624 20.742 21.0845 20.7222C21.1066 20.7024 21.1326 20.6874 21.1608 20.6784C21.189 20.6693 21.2188 20.6662 21.2483 20.6694C21.6502 20.7085 22.0557 20.6507 22.4307 20.5007C22.5405 20.4571 22.6539 20.3913 22.7873 20.294C25.7285 18.1277 29.2761 19.103 31.627 20.7444C32.3961 20.0744 33.1763 20.0745 33.9449 20.7444C36.2953 19.103 39.8434 18.1276 42.7847 20.2942C42.918 20.3913 43.0314 20.4571 43.1412 20.5007C43.5164 20.6506 43.9221 20.7085 44.3242 20.6694C44.3536 20.6662 44.3834 20.6693 44.4116 20.6784C44.4397 20.6875 44.4657 20.7025 44.4877 20.7223C44.5097 20.7421 44.5272 20.7663 44.5393 20.7933C44.5513 20.8204 44.5574 20.8497 44.5574 20.8793V21.4792C44.5569 21.5284 44.5394 21.5758 44.5078 21.6135C44.4762 21.6512 44.4325 21.6767 44.3842 21.6857C43.795 21.7989 43.4508 22.2511 43.3319 23.0683C42.9659 24.7233 42.2507 26.0289 41.2633 26.8444C40.39 27.5664 39.3011 27.8985 38.198 27.7801C37.0366 27.6549 35.9495 27.0603 35.1371 26.1059C34.2535 25.0677 33.7841 23.7175 33.7797 22.2011C33.7793 22.0696 33.7331 21.9423 33.6491 21.8411C33.5652 21.7399 33.4486 21.6711 33.3195 21.6464C32.9795 21.5821 32.6209 21.585 32.2542 21.6573C32.125 21.6823 32.0085 21.7511 31.9243 21.8523C31.8401 21.9534 31.7935 22.0806 31.7924 22.2121C31.7858 23.7265 31.315 25.0744 30.4312 26.1105C29.6182 27.0633 28.5318 27.6565 27.3712 27.7806C27.2266 27.7959 27.0812 27.8036 26.9357 27.8036ZM21.2257 20.745C21.1924 20.745 21.1603 20.7573 21.1355 20.7795C21.1214 20.792 21.1102 20.8074 21.1025 20.8246C21.0948 20.8418 21.0909 20.8604 21.091 20.8793V21.4792C21.0915 21.5105 21.1028 21.5408 21.1231 21.5647C21.1433 21.5886 21.1712 21.6047 21.2021 21.6104C21.8185 21.7288 22.1934 22.2155 22.3167 23.0571C23.1429 26.7924 25.4655 27.9076 27.3636 27.7039C29.5154 27.4738 31.7016 25.513 31.7161 22.2121C31.7173 22.0628 31.7702 21.9185 31.8657 21.8037C31.9612 21.6889 32.0935 21.6106 32.2401 21.5823C32.6166 21.509 32.9847 21.5056 33.3342 21.5712C33.4806 21.5996 33.6126 21.678 33.7078 21.7929C33.8029 21.9078 33.8552 22.0521 33.8557 22.2013C33.8656 25.5073 36.0515 27.4721 38.2057 27.7042C40.1043 27.9085 42.4287 26.795 43.2558 23.0551C43.3785 22.2164 43.7525 21.7295 44.3692 21.6111C44.4 21.6055 44.4279 21.5894 44.4482 21.5655C44.4684 21.5415 44.4797 21.5113 44.4801 21.48V20.88C44.4802 20.8612 44.4763 20.8425 44.4686 20.8253C44.461 20.8081 44.4498 20.7926 44.4358 20.78C44.4218 20.7674 44.4053 20.7579 44.3874 20.7522C44.3694 20.7464 44.3505 20.7445 44.3317 20.7466C43.9173 20.7869 43.4991 20.7274 43.1124 20.5731C42.9962 20.527 42.8775 20.4583 42.7387 20.3571C39.8199 18.2069 36.2919 19.1894 33.9642 20.8256L33.9394 20.843L33.9166 20.823C33.1558 20.1466 32.4159 20.1468 31.6552 20.823L31.6325 20.843L31.6071 20.8249C29.2786 19.1886 25.7507 18.2064 22.8326 20.3563C22.6936 20.4577 22.5749 20.5263 22.4587 20.5725C22.0722 20.7269 21.6543 20.7864 21.24 20.7459C21.2352 20.7453 21.2305 20.745 21.2257 20.745ZM38.4841 26.494C36.7025 26.494 35.3713 24.6636 35.3713 23.0272C35.3713 21.433 36.6223 20.362 38.4841 20.362C39.6254 20.362 40.615 20.7237 41.1993 21.3545C41.6873 21.8814 41.9017 22.5783 41.8367 23.4254C41.7055 25.1177 40.2016 26.494 38.4841 26.494ZM38.4841 20.4385C36.6682 20.4385 35.448 21.4787 35.448 23.027C35.448 24.6274 36.7464 26.4171 38.4841 26.4171C40.1625 26.4171 41.6321 25.0726 41.76 23.4199C41.8233 22.5943 41.6158 21.9165 41.1429 21.406C40.5731 20.7912 39.6041 20.4385 38.4841 20.4385ZM27.0877 26.494C25.3697 26.494 23.8663 25.1177 23.7355 23.426C23.6703 22.5782 23.8846 21.8813 24.3727 21.3551C24.9569 20.7243 25.9464 20.3626 27.0879 20.3626C28.9497 20.3626 30.2007 21.4336 30.2007 23.0278C30.2005 24.6636 28.8692 26.494 27.0877 26.494ZM27.0877 20.4385C25.9679 20.4385 24.9986 20.7914 24.429 21.4063C23.9561 21.917 23.7485 22.5946 23.8119 23.4202C23.9398 25.0727 25.4094 26.4173 27.0877 26.4173C28.8253 26.4173 30.1238 24.6274 30.1238 23.0272C30.1238 21.4787 28.9037 20.4385 27.0877 20.4385Z" fill="#363636"/>
<g opacity="0.55">
<path d="M44.3284 20.7076C43.92 20.748 43.508 20.6893 43.1271 20.5367C42.996 20.4845 42.8758 20.4083 42.7619 20.3253C39.8976 18.2153 36.4064 19.0616 33.9421 20.7933C33.1714 20.1081 32.4005 20.1081 31.6296 20.7933C29.1654 19.0616 25.6743 18.2153 22.8099 20.3253C22.6961 20.4083 22.5758 20.4845 22.4448 20.5367C22.0642 20.6894 21.6524 20.748 21.2443 20.7076C21.2202 20.705 21.1958 20.7074 21.1727 20.7149C21.1496 20.7223 21.1283 20.7345 21.1102 20.7507C21.0922 20.7669 21.0777 20.7867 21.0678 20.8088C21.0579 20.831 21.0527 20.855 21.0527 20.8792V21.4622C21.0527 21.4379 21.0578 21.4139 21.0677 21.3917C21.0776 21.3696 21.0921 21.3498 21.1102 21.3336C21.1283 21.3174 21.1496 21.3052 21.1727 21.2978C21.1958 21.2904 21.2202 21.288 21.2443 21.2907C21.6524 21.331 22.0642 21.2723 22.4448 21.1196C22.5758 21.0675 22.6961 20.9914 22.8099 20.9082C25.6743 18.7982 29.1654 19.6445 31.6304 21.3764C32.4013 20.6912 33.1721 20.6912 33.9429 21.3764C36.4071 19.6445 39.8983 18.7982 42.7634 20.9082C42.8774 20.9914 42.9975 21.0675 43.1286 21.1196C43.5095 21.2723 43.9216 21.331 44.3299 21.2907C44.354 21.288 44.3783 21.2905 44.4014 21.2979C44.4244 21.3053 44.4456 21.3176 44.4636 21.3337C44.4816 21.3499 44.496 21.3697 44.5058 21.3919C44.5156 21.414 44.5207 21.438 44.5206 21.4622V20.8792C44.5207 20.8549 44.5156 20.8308 44.5057 20.8085C44.4958 20.7863 44.4813 20.7664 44.4631 20.7501C44.445 20.7339 44.4236 20.7217 44.4003 20.7144C44.3771 20.7071 44.3526 20.7047 44.3284 20.7076ZM41.7973 23.4367C41.6614 25.0979 40.1924 26.4556 38.4839 26.4556C36.8722 26.4556 35.5708 24.8988 35.4238 23.3221C35.4141 23.4179 35.4093 23.5141 35.4094 23.6104C35.4094 25.2824 36.7713 27.039 38.4839 27.039C40.1964 27.039 41.6689 25.6738 41.7973 24.0065C41.813 23.8169 41.8128 23.6263 41.7968 23.4367H41.7973ZM30.1481 23.3221C30.0013 24.8988 28.7005 26.4556 27.0881 26.4556C25.3803 26.4556 23.9115 25.0979 23.7756 23.4367C23.7593 23.6263 23.7588 23.8168 23.7742 24.0065C23.9032 25.6738 25.3755 27.039 27.0876 27.039C28.7997 27.039 30.1621 25.2818 30.1621 23.6104C30.1622 23.5141 30.1574 23.4179 30.1476 23.3221H30.1481Z" fill="white"/>
</g>
<path d="M26.9354 28.0286C25.9325 28.0286 24.9631 27.6773 24.1647 27.0169C23.1389 26.1683 22.398 24.8207 22.0217 23.1196C22.0203 23.1135 22.0193 23.1072 22.0183 23.1009C21.8803 22.1544 21.454 21.9657 21.1455 21.9068C21.0458 21.8878 20.9558 21.8348 20.8909 21.7568C20.8259 21.6788 20.7902 21.5806 20.7896 21.4792V20.8792C20.7896 20.818 20.8024 20.7575 20.8273 20.7016C20.8522 20.6457 20.8886 20.5956 20.9342 20.5547C20.9797 20.5138 21.0333 20.483 21.0916 20.4642C21.1498 20.4453 21.2113 20.439 21.2722 20.4455C21.6379 20.4811 22.0069 20.4285 22.3481 20.2921C22.4402 20.2558 22.5373 20.1987 22.6549 20.1128C25.6323 17.9192 29.201 18.8371 31.615 20.4638C32.3846 19.8672 33.1878 19.8672 33.9574 20.4638C36.3715 18.8378 39.9401 17.9195 42.9185 20.1136C43.0354 20.1987 43.1332 20.2558 43.2253 20.2923C43.5664 20.4285 43.9352 20.4811 44.3008 20.4457C44.3616 20.4392 44.4231 20.4455 44.4814 20.4643C44.5396 20.4831 44.5933 20.514 44.6388 20.5549C44.6843 20.5958 44.7207 20.6458 44.7456 20.7017C44.7705 20.7576 44.7834 20.8182 44.7833 20.8794V21.4793C44.7828 21.5807 44.7471 21.6788 44.6822 21.7568C44.6174 21.8348 44.5274 21.8878 44.4278 21.9068C44.1191 21.9662 43.6931 22.1546 43.5546 23.1011C43.5537 23.1073 43.5526 23.1136 43.5512 23.1198C43.1748 24.8214 42.4333 26.1695 41.4067 27.0181C40.4863 27.7791 39.338 28.129 38.174 28.0037C36.9549 27.8724 35.8156 27.2501 34.9657 26.2514C34.0473 25.1723 33.5594 23.7719 33.5545 22.2017C33.5543 22.1226 33.5267 22.046 33.4764 21.985C33.426 21.924 33.356 21.8825 33.2783 21.8674C32.9666 21.8085 32.6367 21.8119 32.2978 21.8777C32.2197 21.8927 32.1493 21.9343 32.0983 21.9954C32.0474 22.0564 32.0191 22.1332 32.0183 22.2127C32.0113 23.7809 31.5219 25.179 30.6032 26.2562C29.7529 27.2533 28.6138 27.8736 27.3956 28.004C27.2428 28.0204 27.0891 28.0286 26.9354 28.0286ZM32.826 21.2985C33.0108 21.2982 33.1953 21.3152 33.377 21.3494C33.575 21.3873 33.7537 21.4929 33.8824 21.6481C34.0111 21.8033 34.0819 21.9984 34.0826 22.2C34.092 25.3735 36.1767 27.258 38.2312 27.4796C40.0322 27.6744 42.2384 26.6021 43.0352 23.0156C43.1707 22.1066 43.5815 21.5652 44.257 21.4049V20.9783C43.839 21.0034 43.4206 20.9362 43.0314 20.7815C42.8971 20.7281 42.7628 20.6508 42.6081 20.5382C39.7845 18.4581 36.3594 19.4184 34.0944 21.009C34.0459 21.0431 33.9872 21.0598 33.928 21.0564C33.8687 21.053 33.8123 21.0297 33.768 20.9903C33.0984 20.3954 32.475 20.3954 31.8056 20.9903C31.7612 21.0297 31.7048 21.0531 31.6455 21.0565C31.5862 21.0599 31.5275 21.0431 31.479 21.009C29.2146 19.4176 25.7895 18.4581 22.967 20.5374C22.8114 20.6508 22.677 20.7281 22.543 20.7815C22.1537 20.936 21.7352 21.0032 21.3171 20.9783V21.4043C21.9921 21.5641 22.4035 22.1056 22.5388 23.015C23.3351 26.6001 25.5396 27.6722 27.3402 27.4789C29.3927 27.2594 31.4777 25.3789 31.4917 22.2093C31.4933 22.008 31.5645 21.8135 31.693 21.6586C31.8216 21.5037 31.9998 21.398 32.1973 21.3594C32.4043 21.319 32.6146 21.2987 32.8254 21.2985H32.826ZM38.4854 26.7191C36.5748 26.7191 35.1472 24.7699 35.1472 23.0271C35.1472 21.2981 36.4887 20.1366 38.4854 20.1366C39.6891 20.1366 40.7388 20.5247 41.3654 21.2014C41.8979 21.7761 42.1324 22.5304 42.062 23.4433C41.9217 25.2497 40.3171 26.7191 38.4847 26.7191H38.4854ZM38.4854 20.6637C37.0862 20.6637 35.6745 21.3945 35.6745 23.0271C35.6745 24.5211 36.8765 26.1921 38.4854 26.1921C40.0487 26.1921 41.4174 24.9408 41.5365 23.4026C41.5949 22.6424 41.4073 22.022 40.9787 21.5595C40.4509 20.9903 39.5421 20.6637 38.4847 20.6637H38.4854ZM27.0877 26.7191C25.2552 26.7191 23.6507 25.2497 23.5109 23.4434C23.4408 22.5304 23.675 21.7761 24.2075 21.2014C24.8341 20.5247 25.8839 20.1366 27.0877 20.1366C29.0842 20.1366 30.4257 21.2981 30.4257 23.0271C30.426 24.7699 28.9994 26.7191 27.0882 26.7191H27.0877ZM27.0877 20.6637C26.0302 20.6637 25.1215 20.9903 24.5942 21.5595C24.1656 22.0222 23.978 22.6424 24.0365 23.4028C24.1555 24.9408 25.5244 26.1921 27.0877 26.1921C28.6964 26.1921 29.8985 24.5211 29.8985 23.0271C29.8989 21.3945 28.4872 20.6637 27.0882 20.6637H27.0877Z" fill="#363636"/>
<path d="M22.8733 43.3624H45.8465C46.0045 43.3624 46.156 43.4252 46.2677 43.5369C46.3794 43.6486 46.4421 43.8001 46.4421 43.9581V48.5929C46.4421 48.7509 46.3794 48.9024 46.2677 49.0141C46.156 49.1258 46.0045 49.1886 45.8465 49.1886H22.8733C22.5246 49.1886 22.1902 49.05 21.9436 48.8035C21.697 48.5569 21.5585 48.2225 21.5585 47.8738V44.6772C21.5585 44.3285 21.697 43.9941 21.9436 43.7475C22.1902 43.501 22.5246 43.3624 22.8733 43.3624Z" fill="#6E76F1"/>
<g opacity="0.7">
<path d="M45.8468 43.3625H22.8736C22.5249 43.3625 22.1905 43.501 21.9439 43.7476C21.6974 43.9941 21.5589 44.3285 21.5589 44.6772V47.8738C21.5586 48.0886 21.6113 48.3001 21.7123 48.4897C21.7123 48.4889 21.7123 48.4882 21.7123 48.4874V45.2908C21.7123 44.9421 21.8508 44.6077 22.0973 44.3612C22.3439 44.1146 22.6783 43.9761 23.027 43.9761H24.7362C24.8798 44.2347 25.7241 44.4332 26.7442 44.4332C27.7643 44.4332 28.6087 44.2347 28.7522 43.9761H46.0002C46.0837 43.976 46.1662 43.9936 46.2424 44.0277C46.3186 44.0617 46.3868 44.1115 46.4425 44.1736V43.9589C46.4426 43.8806 46.4273 43.803 46.3974 43.7307C46.3675 43.6583 46.3237 43.5925 46.2683 43.5371C46.213 43.4818 46.1473 43.4378 46.075 43.4078C46.0026 43.3779 45.9251 43.3624 45.8468 43.3625Z" fill="white"/>
</g>
<path d="M24.1717 43.3538H23.235V49.1885H24.1717V43.3538Z" fill="white"/>
<path d="M26.0111 43.3538H25.0744V49.1885H26.0111V43.3538Z" fill="white"/>
<g opacity="0.3">
<path d="M45.8468 47.6546H22.8736C22.5249 47.6546 22.1905 47.5161 21.9439 47.2695C21.6974 47.0229 21.5589 46.6885 21.5589 46.3398V47.8738C21.5589 48.2225 21.6974 48.5569 21.9439 48.8035C22.1905 49.0501 22.5249 49.1886 22.8736 49.1886H45.8468C45.9251 49.1886 46.0025 49.1732 46.0748 49.1433C46.1471 49.1133 46.2127 49.0695 46.2681 49.0142C46.3234 48.9588 46.3672 48.8932 46.3972 48.8209C46.4271 48.7486 46.4425 48.6711 46.4425 48.5929V47.0589C46.4425 47.1371 46.4271 47.2146 46.3972 47.2869C46.3672 47.3592 46.3234 47.4248 46.2681 47.4802C46.2127 47.5355 46.1471 47.5793 46.0748 47.6093C46.0025 47.6392 45.9251 47.6546 45.8468 47.6546Z" fill="#363636"/>
</g>
<path d="M45.8462 49.4954H22.8732C22.4432 49.4949 22.031 49.324 21.727 49.02C21.4229 48.716 21.2519 48.3038 21.2514 47.8738V44.6773C21.2519 44.2473 21.4229 43.8351 21.727 43.5311C22.031 43.2271 22.4432 43.0561 22.8732 43.0557H45.8462C46.0855 43.0559 46.3148 43.1511 46.484 43.3203C46.6532 43.4895 46.7484 43.7189 46.7487 43.9581V48.5929C46.7484 48.8322 46.6532 49.0616 46.484 49.2308C46.3148 49.3999 46.0855 49.4951 45.8462 49.4954ZM22.8732 43.6693C22.6059 43.6695 22.3497 43.7758 22.1607 43.9648C21.9717 44.1538 21.8654 44.41 21.865 44.6773V47.8738C21.8654 48.1411 21.9717 48.3973 22.1607 48.5863C22.3497 48.7752 22.6059 48.8815 22.8732 48.8818H45.8462C45.9228 48.8817 45.9962 48.8512 46.0503 48.7971C46.1045 48.7429 46.1349 48.6695 46.1351 48.5929V43.9577C46.1349 43.8811 46.1045 43.8077 46.0503 43.7535C45.9962 43.6994 45.9228 43.6689 45.8462 43.6688L22.8732 43.6693Z" fill="#363636"/>
<path d="M33.7495 44.694H46.4419V47.899H33.7495C33.6162 47.899 33.4842 47.8727 33.3611 47.8217C33.238 47.7707 33.1261 47.6959 33.0318 47.6017C32.9376 47.5075 32.8628 47.3956 32.8118 47.2724C32.7608 47.1493 32.7346 47.0173 32.7346 46.8841V45.7089C32.7346 45.5756 32.7608 45.4436 32.8118 45.3205C32.8628 45.1973 32.9376 45.0855 33.0318 44.9912C33.1261 44.897 33.238 44.8222 33.3611 44.7712C33.4842 44.7202 33.6162 44.694 33.7495 44.694Z" fill="white"/>
<g opacity="0.3">
<path d="M34.6696 47.208C34.5364 47.208 34.4044 47.1818 34.2813 47.1308C34.1581 47.0798 34.0462 47.005 33.952 46.9108C33.8578 46.8165 33.783 46.7047 33.732 46.5815C33.681 46.4584 33.6547 46.3264 33.6547 46.1931V45.0179C33.6549 44.9084 33.6729 44.7996 33.708 44.6958C33.4464 44.7062 33.1989 44.8174 33.0175 45.0061C32.836 45.1948 32.7345 45.4464 32.7343 45.7082V46.8834C32.7343 47.0167 32.7606 47.1487 32.8116 47.2718C32.8626 47.395 32.9374 47.5068 33.0316 47.6011C33.1258 47.6953 33.2377 47.7701 33.3609 47.8211C33.484 47.8721 33.616 47.8983 33.7492 47.8983H46.4417V47.208H34.6696Z" fill="#363636"/>
</g>
<path d="M46.442 48.1796H33.7496C33.4059 48.1792 33.0765 48.0425 32.8335 47.7995C32.5905 47.5565 32.4539 47.227 32.4535 46.8834V45.7083C32.4539 45.3647 32.5905 45.0352 32.8335 44.7922C33.0765 44.5492 33.4059 44.4125 33.7496 44.4121H46.442C46.5166 44.4121 46.5882 44.4417 46.6409 44.4945C46.6937 44.5472 46.7233 44.6187 46.7234 44.6933V47.8983C46.7234 47.9729 46.6937 48.0445 46.641 48.0972C46.5882 48.15 46.5166 48.1796 46.442 48.1796ZM33.7496 44.9746C33.5551 44.9748 33.3686 45.0522 33.231 45.1898C33.0935 45.3273 33.0162 45.5138 33.016 45.7083V46.8834C33.0162 47.0779 33.0936 47.2644 33.2311 47.4019C33.3686 47.5395 33.5551 47.6169 33.7496 47.6171H46.1609V44.9746H33.7496Z" fill="#363636"/>
<g opacity="0.4">
<path d="M43.3625 45.6419C43.6192 45.6097 43.8758 45.5945 44.1325 45.5836L44.9024 45.5582C45.159 45.5487 45.4157 45.5447 45.6721 45.5382C45.9286 45.5318 46.1854 45.5289 46.4421 45.5269V45.757C46.1854 45.755 45.9288 45.7519 45.6721 45.7456C45.4155 45.7393 45.159 45.735 44.9024 45.7255L44.1325 45.7002C43.8758 45.6892 43.6192 45.6741 43.3625 45.6419Z" fill="#363636"/>
<path d="M32.7586 45.5269C34.2077 45.5176 35.6569 45.5252 37.1061 45.5337L39.2799 45.5561C40.0044 45.5656 40.7291 45.5561 41.4536 45.642C40.7291 45.7273 40.0044 45.7187 39.2799 45.7277L37.1061 45.7501C35.6569 45.7587 34.2077 45.7664 32.7586 45.757V45.5269Z" fill="#363636"/>
<path d="M38.9186 46.3343C39.5457 46.2495 40.1727 46.2524 40.7996 46.2447L42.6805 46.2229L44.5613 46.2134C45.1882 46.2125 45.8152 46.2134 46.4421 46.2192V46.4493C45.8151 46.4552 45.1882 46.4571 44.5613 46.455L42.6805 46.4457L40.7996 46.4237C40.1727 46.4162 39.5457 46.4191 38.9186 46.3343Z" fill="#363636"/>
<path d="M32.7586 46.2192C33.1518 46.2159 33.5449 46.2159 33.9381 46.2192L35.1174 46.2321L36.2967 46.2551C36.6899 46.2612 37.0831 46.2692 37.4762 46.3342C37.0831 46.3991 36.6899 46.4073 36.2967 46.4134L35.1174 46.4364L33.9381 46.4493C33.5448 46.4521 33.1517 46.4521 32.7586 46.4493V46.2192Z" fill="#363636"/>
<path d="M42.6803 47.0265C42.9937 46.9805 43.3072 46.9606 43.6206 46.9486L44.5611 46.9248C44.8745 46.9155 45.1881 46.9145 45.5016 46.9107C45.6583 46.9083 45.815 46.9075 45.9718 46.9086C46.1286 46.9086 46.2852 46.9086 46.442 46.9115V47.1416C46.2852 47.1443 46.1286 47.1442 45.9718 47.1445C45.815 47.1448 45.6583 47.1445 45.5016 47.1423C45.1881 47.1385 44.8745 47.1376 44.5611 47.1282L43.6206 47.1045C43.3072 47.0925 42.9937 47.0727 42.6803 47.0265Z" fill="#363636"/>
<path d="M32.7586 46.9115L34.6962 46.9221L36.6336 46.9407L38.571 46.9658C39.2169 46.9737 39.8628 46.9812 40.5085 47.0272C39.8628 47.0732 39.2169 47.0801 38.571 47.0886L36.6336 47.1137L34.6962 47.1323L32.7586 47.1429V46.9115Z" fill="#363636"/>
</g>
<path d="M45.1273 55.0147H22.1542C21.9962 55.0147 21.8447 54.952 21.733 54.8402C21.6213 54.7285 21.5585 54.577 21.5585 54.4191V49.7838C21.5585 49.6258 21.6213 49.4743 21.733 49.3626C21.8447 49.2509 21.9962 49.1881 22.1542 49.1881H45.1273C45.4761 49.1881 45.8105 49.3266 46.057 49.5732C46.3036 49.8198 46.4421 50.1542 46.4421 50.5029V53.6999C46.4421 54.0486 46.3036 54.383 46.057 54.6296C45.8105 54.8762 45.4761 55.0147 45.1273 55.0147Z" fill="#F42C4F"/>
<path d="M43.8289 55.0147H44.7656V49.18H43.8289V55.0147Z" fill="#FFBC1F"/>
<path d="M41.9896 55.0147H42.9262V49.18H41.9896V55.0147Z" fill="#FFBC1F"/>
<g opacity="0.3">
<path d="M22.1545 53.4807H45.1277C45.3003 53.4807 45.4713 53.4467 45.6308 53.3806C45.7904 53.3145 45.9353 53.2177 46.0574 53.0956C46.1795 52.9735 46.2763 52.8286 46.3424 52.669C46.4085 52.5095 46.4425 52.3386 46.4425 52.1659V53.6999C46.4425 53.8726 46.4085 54.0435 46.3424 54.203C46.2763 54.3626 46.1795 54.5075 46.0574 54.6296C45.9353 54.7517 45.7904 54.8485 45.6308 54.9146C45.4713 54.9807 45.3003 55.0147 45.1277 55.0147H22.1545C22.0763 55.0147 21.9988 54.9993 21.9265 54.9694C21.8543 54.9395 21.7886 54.8956 21.7333 54.8403C21.678 54.785 21.6341 54.7193 21.6042 54.647C21.5742 54.5747 21.5588 54.4973 21.5589 54.419V52.8855C21.5589 53.0434 21.6217 53.1948 21.7334 53.3064C21.8451 53.418 21.9966 53.4807 22.1545 53.4807Z" fill="#363636"/>
</g>
<g opacity="0.7">
<path d="M22.1545 49.1885H45.1277C45.3003 49.1885 45.4713 49.2225 45.6308 49.2886C45.7904 49.3547 45.9353 49.4515 46.0574 49.5736C46.1795 49.6957 46.2763 49.8407 46.3424 50.0002C46.4085 50.1597 46.4425 50.3307 46.4425 50.5033V53.6999C46.4427 53.9147 46.39 54.1262 46.2891 54.3158C46.2891 54.3158 46.2891 54.3142 46.2891 54.3135V51.1169C46.2891 50.7682 46.1506 50.4338 45.904 50.1872C45.6574 49.9407 45.323 49.8021 44.9743 49.8021H43.2651C43.1215 50.0608 42.2772 50.2593 41.2571 50.2593C40.237 50.2593 39.3927 50.0608 39.2491 49.8021H22.0011C21.9176 49.8021 21.8351 49.8197 21.7589 49.8538C21.6827 49.8878 21.6145 49.9375 21.5589 49.9997V49.7842C21.5588 49.706 21.5742 49.6285 21.6042 49.5562C21.6341 49.4839 21.678 49.4183 21.7333 49.363C21.7886 49.3076 21.8543 49.2638 21.9265 49.2338C21.9988 49.2039 22.0763 49.1885 22.1545 49.1885Z" fill="white"/>
</g>
<path d="M45.1271 55.3215H22.1539C21.9146 55.3213 21.6853 55.2261 21.5161 55.0569C21.3469 54.8877 21.2517 54.6583 21.2514 54.4191V49.7843C21.2517 49.545 21.3469 49.3156 21.5161 49.1464C21.6853 48.9773 21.9146 48.8821 22.1539 48.8818H45.1271C45.557 48.8823 45.9692 49.0533 46.2732 49.3573C46.5772 49.6613 46.7482 50.0735 46.7487 50.5034V53.6999C46.7482 54.1299 46.5772 54.542 46.2732 54.846C45.9692 55.15 45.557 55.3211 45.1271 55.3215ZM22.1539 49.4954C22.0773 49.4955 22.0039 49.5259 21.9497 49.5801C21.8956 49.6343 21.8651 49.7077 21.865 49.7843V54.4195C21.8651 54.4961 21.8956 54.5696 21.9497 54.6237C22.0039 54.6779 22.0773 54.7083 22.1539 54.7084H45.1271C45.3943 54.7081 45.6505 54.6018 45.8395 54.4128C46.0284 54.2238 46.1347 53.9676 46.1351 53.7004V50.5034C46.1347 50.2362 46.0284 49.98 45.8395 49.791C45.6505 49.602 45.3943 49.4957 45.1271 49.4954H22.1539Z" fill="#363636"/>
<path d="M34.2506 53.7246H21.5581V50.5196H34.2506C34.3838 50.5196 34.5158 50.5458 34.6389 50.5968C34.7621 50.6479 34.874 50.7226 34.9682 50.8168C35.0624 50.9111 35.1372 51.023 35.1882 51.1461C35.2392 51.2692 35.2655 51.4012 35.2655 51.5345V52.7097C35.2655 52.843 35.2392 52.9749 35.1882 53.0981C35.1372 53.2212 35.0624 53.3331 34.9682 53.4273C34.874 53.5216 34.7621 53.5963 34.6389 53.6473C34.5158 53.6983 34.3838 53.7246 34.2506 53.7246Z" fill="white"/>
<g opacity="0.3">
<path d="M33.3309 53.0341C33.6001 53.0341 33.8582 52.9272 34.0486 52.7369C34.2389 52.5465 34.3458 52.2884 34.3458 52.0192V50.8442C34.3456 50.7346 34.3277 50.6258 34.2926 50.522C34.5542 50.5325 34.8016 50.6437 34.9831 50.8324C35.1645 51.0211 35.266 51.2727 35.2662 51.5345V52.7095C35.2662 52.9787 35.1593 53.2368 34.969 53.4272C34.7786 53.6175 34.5205 53.7244 34.2513 53.7244H21.5589V53.0341H33.3309Z" fill="#363636"/>
</g>
<path d="M34.2506 54.0053H21.5582C21.4835 54.0053 21.412 53.9757 21.3592 53.9229C21.3065 53.8701 21.2768 53.7986 21.2768 53.724V50.5194C21.2769 50.4448 21.3065 50.3733 21.3593 50.3206C21.412 50.2679 21.4836 50.2383 21.5582 50.2383H34.2506C34.5943 50.2386 34.9238 50.3753 35.1668 50.6183C35.4098 50.8613 35.5465 51.1908 35.5469 51.5345V52.7095C35.5463 53.0531 35.4096 53.3824 35.1666 53.6254C34.9236 53.8683 34.5942 54.0049 34.2506 54.0053ZM21.8393 53.4428H34.2506C34.4451 53.4425 34.6316 53.3652 34.7692 53.2276C34.9067 53.0901 34.9841 52.9036 34.9843 52.7091V51.534C34.9841 51.3395 34.9068 51.153 34.7692 51.0154C34.6317 50.8779 34.4452 50.8005 34.2506 50.8003H21.8393V53.4428Z" fill="#363636"/>
<g opacity="0.4">
<path d="M24.6384 51.468C24.3817 51.5002 24.1251 51.5153 23.8684 51.5263L23.0985 51.5516C22.8419 51.5611 22.5853 51.5653 22.3288 51.5717C22.0723 51.5782 21.8155 51.5811 21.5589 51.5831V51.353C21.8155 51.355 22.0721 51.3579 22.3288 51.3643C22.5854 51.3708 22.8419 51.3747 23.0985 51.3843L23.8684 51.4097C24.1251 51.4206 24.3825 51.4358 24.6384 51.468Z" fill="#363636"/>
<path d="M35.242 51.5831C33.7928 51.5925 32.3436 51.5848 30.8945 51.5762L28.7206 51.5538C27.9961 51.5445 27.2715 51.5538 26.547 51.4681C27.2715 51.3828 27.9961 51.3914 28.7206 51.3822L30.8945 51.3598C32.3436 51.3513 33.7928 51.3437 35.242 51.353V51.5831Z" fill="#363636"/>
<path d="M29.0824 52.1604C28.4553 52.2452 27.8283 52.2423 27.2014 52.2498L25.3205 52.2719L23.4397 52.2814C22.8128 52.2823 22.1858 52.2804 21.5589 52.2756V52.0455C22.1858 52.0395 22.8127 52.0387 23.4397 52.0397L25.3205 52.049L27.2014 52.071C27.8283 52.0785 28.4553 52.0756 29.0824 52.1604Z" fill="#363636"/>
<path d="M35.2424 52.2754C34.8493 52.2787 34.4561 52.2787 34.0629 52.2754L32.8835 52.2625L31.7042 52.2395C31.311 52.2334 30.9179 52.2252 30.5247 52.1603C30.9179 52.0953 31.311 52.0872 31.7042 52.0812L32.8835 52.0582L34.0629 52.0453C34.4561 52.0425 34.8493 52.0425 35.2424 52.0453V52.2754Z" fill="#363636"/>
<path d="M25.3205 52.8527C25.0071 52.8987 24.6936 52.9186 24.3802 52.9306L23.4397 52.9544C23.1263 52.9637 22.8127 52.9646 22.4992 52.9685C22.3425 52.9709 22.1858 52.9716 22.029 52.9706C21.8722 52.9706 21.7156 52.9706 21.5589 52.9677V52.7376C21.7156 52.7348 21.8722 52.735 22.029 52.7347C22.1858 52.7344 22.3426 52.7347 22.4992 52.7368C22.8127 52.7407 23.1263 52.7416 23.4397 52.751L24.3802 52.7747C24.6936 52.7868 25.0071 52.8065 25.3205 52.8527Z" fill="#363636"/>
<path d="M35.2423 52.9677L33.3047 52.9573L31.3672 52.9385L29.4298 52.9134C28.784 52.9056 28.138 52.898 27.4923 52.852C28.138 52.806 28.784 52.7991 29.4298 52.7907L31.3672 52.7655L33.3047 52.7469L35.2423 52.7364V52.9677Z" fill="#363636"/>
</g>
<path d="M17.7394 54.8997C18.0769 54.8063 18.4144 54.7566 18.7519 54.7187C19.0894 54.6808 19.4268 54.6674 19.7643 54.6562C20.4393 54.6316 21.1142 54.6446 21.7892 54.6581C22.4642 54.6716 23.1391 54.6693 23.8141 54.6696H46.0945H47.1069C47.4444 54.6696 47.7819 54.6543 48.1194 54.6467C48.4572 54.6391 48.7952 54.6501 49.1318 54.6797C49.4693 54.7139 49.8068 54.7707 50.1443 54.9C50.1678 54.9087 50.188 54.9244 50.2023 54.945C50.2166 54.9655 50.2243 54.99 50.2243 55.0151C50.2243 55.0401 50.2166 55.0646 50.2023 55.0851C50.188 55.1057 50.1678 55.1214 50.1443 55.1301C49.8068 55.2594 49.4693 55.3163 49.1318 55.3504C48.7952 55.38 48.4572 55.391 48.1194 55.3834C47.7819 55.3762 47.4444 55.3604 47.1069 55.3605H46.0945H23.8155C23.1405 55.3605 22.4655 55.3576 21.7906 55.372C21.1156 55.3864 20.4407 55.3986 19.7657 55.3739C19.4282 55.3627 19.0907 55.3498 18.7533 55.3114C18.4158 55.2731 18.0783 55.2238 17.7408 55.1304C17.7156 55.1235 17.6934 55.1085 17.6776 55.0877C17.6618 55.0669 17.6532 55.0415 17.6532 55.0154C17.6532 54.9892 17.6618 54.9638 17.6776 54.9431C17.6934 54.9223 17.7156 54.9073 17.7408 54.9003L17.7394 54.8997Z" fill="#363636"/>
</g>
<defs>
<filter id="filter0_ddd_26893_74867" x="0" y="0" width="68" height="69" filterUnits="userSpaceOnUse" color-interpolation-filters="sRGB">
<feFlood flood-opacity="0" result="BackgroundImageFix"/>
<feColorMatrix in="SourceAlpha" type="matrix" values="0 0 0 0 0 0 0 0 0 0 0 0 0 0 0 0 0 0 127 0" result="hardAlpha"/>
<feOffset dy="1"/>
<feGaussianBlur stdDeviation="2.5"/>
<feColorMatrix type="matrix" values="0 0 0 0 0.748125 0 0 0 0 0.767812 0 0 0 0 0.7875 0 0 0 0.24 0"/>
<feBlend mode="normal" in2="BackgroundImageFix" result="effect1_dropShadow_26893_74867"/>
<feColorMatrix in="SourceAlpha" type="matrix" values="0 0 0 0 0 0 0 0 0 0 0 0 0 0 0 0 0 0 127 0" result="hardAlpha"/>
<feOffset dy="3"/>
<feGaussianBlur stdDeviation="2"/>
<feColorMatrix type="matrix" values="0 0 0 0 0.748125 0 0 0 0 0.767812 0 0 0 0 0.7875 0 0 0 0.18 0"/>
<feBlend mode="normal" in2="effect1_dropShadow_26893_74867" result="effect2_dropShadow_26893_74867"/>
<feColorMatrix in="SourceAlpha" type="matrix" values="0 0 0 0 0 0 0 0 0 0 0 0 0 0 0 0 0 0 127 0" result="hardAlpha"/>
<feOffset dy="2"/>
<feGaussianBlur stdDeviation="2"/>
<feColorMatrix type="matrix" values="0 0 0 0 0.748125 0 0 0 0 0.767812 0 0 0 0 0.7875 0 0 0 0.2 0"/>
<feBlend mode="normal" in2="effect2_dropShadow_26893_74867" result="effect3_dropShadow_26893_74867"/>
<feBlend mode="normal" in="SourceGraphic" in2="effect3_dropShadow_26893_74867" result="shape"/>
</filter>
</defs>
</svg>
